<?xml version="1.0" encoding="utf-8"?>
<!-- Generator: Adobe Illustrator 23.1.1, SVG Export Plug-In . SVG Version: 6.00 Build 0)  -->
<svg version="1.1" id="圖層_1" focusable="false" xmlns="http://www.w3.org/2000/svg" xmlns:xlink="http://www.w3.org/1999/xlink"
	 x="0px" y="0px" viewBox="0 0 576 512" style="enable-background:new 0 0 576 512;" xml:space="preserve">
<g id="Cart-3">
	<path id="Shape-15" d="M454.42,383.52c-0.7,0.02-1.39-0.01-2.09-0.1H231.9c-20.07,0.24-39.28-8.13-52.77-22.99
		c-13.51-15.51-23.44-33.79-29.1-53.57c-13.39-48.87-22.19-98.89-26.27-149.4v-0.11l-0.44-3.96c-1.02-8.54-2.04-17.38-3.09-26.05
		c-4.74-38.58-16.17-64.51-33.84-76.95c-9.99-7.54-21.34-13.07-33.44-16.3l-2.73-0.79l-0.39-0.11
		c-11.77-3.51-21.94-6.47-21.94-18.11C27.85,7.13,34.1,0.55,42.05,0.2c1.04-0.15,2.09-0.21,3.14-0.19
		c21.73,0.96,42.69,8.31,60.26,21.12c22.68,19.11,38.38,45.21,44.64,74.2H500c12.74-1.37,25.45,2.81,34.89,11.48
		c9.03,10.29,13.75,23.67,13.18,37.35l-0.15,1.37c-0.1,0.68-9.96,69.99-28.75,150.48c-8.65,36.98-21.29,62.67-37.59,76.41
		C474.13,379.23,464.5,383.17,454.42,383.52z M154.46,129.21c1.07,8.08,2.09,16.17,3.07,23.99l0.52,3.88
		c4.27,48.42,13.14,96.32,26.47,143.06c4.53,14.74,12.26,28.31,22.64,39.73c7.87,8.14,18.79,12.62,30.11,12.35h216.17
		c3.93-1.08,7.41-3.38,9.94-6.58c12.29-15.45,20.56-33.71,24.06-53.15c10.82-43.04,20.18-91.14,27.81-142.98l0.52-3.46
		c-0.05-4.46-1.68-8.76-4.59-12.14c-3.85-2.98-8.69-4.39-13.53-3.95L154.46,129.21z"/>
	<path id="Combined_Shape-4" d="M228.2,512c-27.68,0.17-50.26-22.13-50.43-49.81c-0.17-27.68,22.13-50.26,49.81-50.43
		c27.68-0.17,50.26,22.13,50.43,49.81c0,0.1,0,0.2,0,0.31C278.1,489.47,255.8,511.91,228.2,512z M228.2,444.69
		c-9.51-0.06-17.27,7.6-17.33,17.11c-0.06,9.51,7.6,17.27,17.11,17.33c9.51,0.06,17.27-7.6,17.33-17.11c0-0.04,0-0.07,0-0.11l0,0
		c0.06-9.48-7.57-17.22-17.06-17.28c-0.02,0-0.03,0-0.05,0V444.69z"/>
	<path id="Combined_Shape-5" d="M422.87,512c-27.68,0.17-50.26-22.13-50.43-49.81c-0.17-27.68,22.13-50.26,49.81-50.43
		c27.68-0.17,50.26,22.13,50.43,49.81c0,0.1,0,0.2,0,0.31c0.09,27.59-22.21,50.03-49.8,50.12C422.88,512,422.88,512,422.87,512z
		 M422.87,444.69c-9.51-0.06-17.27,7.6-17.33,17.11c-0.06,9.51,7.6,17.27,17.11,17.33c9.51,0.06,17.27-7.6,17.33-17.11
		c0-0.04,0-0.07,0-0.11l0,0c0.07-9.47-7.55-17.21-17.03-17.28c-0.03,0-0.05,0-0.08,0V444.69z"/>
</g>
</svg>
