<?xml version="1.0" encoding="utf-8"?>
<!-- Generator: Adobe Illustrator 23.1.1, SVG Export Plug-In . SVG Version: 6.00 Build 0)  -->
<svg version="1.1" id="圖層_1" xmlns="http://www.w3.org/2000/svg" xmlns:xlink="http://www.w3.org/1999/xlink" x="0px" y="0px"
	 viewBox="0 0 283.46 85.04" style="enable-background:new 0 0 283.46 85.04;" xml:space="preserve">
<style type="text/css">
	.st0{fill:#252E42;}
</style>
<g>
	<g id="LOGO">
		<g id="组_14">
			<path id="路径_18" class="st0" d="M41.5,11.98c0.81,0.23,1.61,0.49,2.42,0.7c2.83,0.73,5.66,1.44,8.49,2.15
				c0.23,0.05,0.47,0.08,0.71,0.08c1.05,0.01,1.58,0.49,1.56,1.57c0.01,1.33-0.07,2.66-0.24,3.97c-1.02,6.68-2.1,13.36-3.17,20.04
				c-0.1,0.65-0.33,1.26-0.48,1.9c-0.04,0.25,0.01,0.51,0.13,0.74c0.25-0.23,0.53-0.45,0.76-0.7c1.1-1.13,2.73-1.57,4.24-1.15
				c2.55,0.65,5.13,1.18,7.72,1.72c1.46,0.3,2.94,0.47,4.4,0.77c1.18,0.24,1.46,0.65,1.41,1.86c-0.04,0.98-0.14,1.95-0.18,2.93
				c0.03,0.27,0.09,0.53,0.19,0.79c0.23-0.08,0.45-0.21,0.64-0.37c1.48-1.87,3.51-1.85,5.52-1.51c3.77,0.64,7.52,1.41,11.27,2.15
				c0.57,0.11,1.13,0.28,1.67,0.51c0.58,0.25,0.94,0.83,0.91,1.45c0.03,0.83,0.31,1.65,0.37,2.48c0.11,1.59,0.15,3.18,0.21,4.77
				c0.03,0.94,0.48,1.4,1.33,1.11c2.1-0.61,4.32-0.68,6.45-0.2c4.82,0.77,9.55,1.99,14.13,3.65c2.55,0.98,4.98,2.24,7.25,3.75
				c0.88,0.58,0.97,1.12,0.35,1.97c-0.19,0.26-0.36,0.54-0.55,0.81c-0.56,0.94-1.71,1.36-2.74,1c-3.77-1.07-7.39-2.6-10.78-4.57
				c-0.75-0.39-1.62-0.49-2.43-0.27c-3.37,0.59-6.59,1.8-9.52,3.56c-1.55,0.9-3.03,1.95-4.52,2.94c-0.6,0.54-1.48,0.64-2.19,0.24
				c-0.38-0.12-0.78-0.19-1.18-0.2c-2.21-0.62-4.37-1.44-6.43-2.45c-0.04-0.01-0.07-0.04-0.11-0.05c-2.15-0.53-3.89-2.11-4.62-4.2
				c-0.08-0.14-0.17-0.27-0.27-0.39c-0.25,0.33-0.49,0.67-0.7,1.02c-0.42,0.81-0.79,1.65-1.19,2.48c-0.57,1.31-1.56,2.41-2.81,3.11
				c-1.05,0.55-2.3,0.58-3.37,0.07c-2.03-0.83-4.1-1.56-6.16-2.34c-0.4-0.15-0.79-0.3-1.19-0.45c-2.22-0.64-3.78-2.63-3.87-4.95
				c-0.16-1.66-0.43-3.31-0.68-5.1c-0.22,0.17-0.42,0.35-0.6,0.56c-2.01,2.66-4.05,5.3-6,8c-0.8,1.39-2.47,2.01-3.98,1.47
				c-3.25-1.19-6.49-2.45-9.71-3.72c-0.96-0.35-1.58-1.31-1.5-2.33c0.08-2.21,0.31-4.4,0.68-6.58c0.21-2.07,0.29-4.15,0.41-6.23
				c-0.01-0.21-0.04-0.41-0.09-0.61c-0.71,0.91-1.35,1.7-1.96,2.5c-4.16,5.5-8.31,11-12.46,16.5c-1.33,1.92-3.71,2.82-5.98,2.26
				c-2.74-0.54-5.48-1.13-8.22-1.69c-1.45-0.3-1.87-1.31-0.98-2.5c8.8-11.71,16.3-24.29,24.17-36.63c3.61-5.66,7.1-11.4,10.68-17.08
				c0.42-0.5,0.91-0.95,1.45-1.32C40.62,11.97,41.06,11.98,41.5,11.98z"/>
			<path id="路径_19" class="st0" d="M2.81,64.72"/>
		</g>
	</g>
	<g id="SKIGO" transform="translate(123.116 13.99)">
		<path id="s" class="st0" d="M23.33,41.1c0.37-1.55,0.14-2.71-0.68-3.47c-1.49-1.13-3.16-2.01-4.93-2.6
			c-4.37-1.5-7.59-3.28-9.65-5.32c-2.05-2-2.8-4.98-1.96-7.72c0.76-3.13,2.79-5.79,5.59-7.36c3.16-1.84,6.77-2.76,10.42-2.66
			c4.32,0.02,7.61,1.07,9.87,3.15c2.26,2.08,2.92,4.94,1.96,8.56l-0.07,0.16l-8.59-0.04c0.4-1.27,0.08-2.66-0.83-3.64
			c-1.08-0.99-2.52-1.5-3.99-1.4c-1.25-0.02-2.48,0.3-3.56,0.93c-0.95,0.45-1.66,1.29-1.96,2.29c-0.42,1.14-0.06,2.41,0.88,3.17
			c1.9,1.16,3.94,2.09,6.07,2.77c3.99,1.36,6.89,3.07,8.7,5.14c1.81,2.06,2.33,4.74,1.54,8.03c-0.73,3.16-2.75,5.87-5.58,7.47
			c-3.2,1.79-6.82,2.68-10.49,2.56c-3.67,0.13-7.29-0.89-10.35-2.9c-2.72-1.91-3.56-4.85-2.5-8.82l0.07-0.16l8.56,0.04
			c-0.47,1.87-0.08,3.17,1.17,3.91c1.43,0.79,3.05,1.19,4.69,1.13c1.26,0.01,2.5-0.3,3.6-0.91C22.31,42.96,23.03,42.12,23.33,41.1z"
			/>
		<path id="k" class="st0" d="M49.27,35.59l-2.51-0.01l-3.62,15.1l-8.82-0.04l9.17-38.03l8.82,0.04l-3.65,15.04l2.38,0.01
			l10.4-15.02l11.64,0.05L57.6,31.52l6.81,19.25l-10.18-0.04L49.27,35.59z"/>
		<path id="i" class="st0" d="M77.23,50.83l-8.8-0.04l9.17-38.03l8.8,0.04L77.23,50.83z"/>
		<path id="g" class="st0" d="M115.61,45.74c-1.92,1.74-4.14,3.12-6.55,4.07c-3.09,1.2-6.38,1.76-9.69,1.66
			c-4.53-0.02-7.96-1.49-10.3-4.42c-2.34-2.93-2.96-6.68-1.85-11.24l1.92-7.94c0.97-4.47,3.44-8.48,7-11.36
			c3.43-2.77,7.72-4.24,12.12-4.17c4.66,0.02,8.02,1.13,10.06,3.34c2.04,2.21,2.58,5.16,1.59,8.87l-0.07,0.15l-8.3-0.04
			c0.46-1.93,0.3-3.34-0.46-4.21s-2.16-1.32-4.17-1.33c-2.09,0.04-4.08,0.91-5.51,2.43c-1.74,1.72-2.94,3.9-3.46,6.29l-1.93,7.99
			c-0.67,2.73-0.57,4.89,0.3,6.46c0.87,1.57,2.43,2.36,4.69,2.38c1.31,0.03,2.61-0.1,3.89-0.38c0.88-0.19,1.73-0.54,2.48-1.04
			l1.64-6.79l-6.73-0.03l1.42-5.85l15.56,0.07L115.61,45.74z"/>
		<path id="o" class="st0" d="M155.37,35.56c-1.03,4.61-3.59,8.74-7.26,11.71c-3.59,2.91-8.1,4.46-12.73,4.37
			c-4.63-0.02-8.12-1.57-10.48-4.66c-2.36-3.09-2.97-6.94-1.83-11.55l1.64-6.84c1.01-4.61,3.56-8.73,7.24-11.68
			c3.62-2.93,8.16-4.48,12.82-4.39c4.6,0.02,8.06,1.57,10.39,4.66c2.33,3.09,2.94,6.94,1.84,11.55L155.37,35.56z M148.22,28.62
			c0.68-2.82,0.59-5.08-0.27-6.77c-0.86-1.69-2.46-2.55-4.81-2.56c-2.29-0.01-4.48,0.93-6.05,2.6c-1.79,1.84-3.03,4.15-3.58,6.67
			l-1.65,6.9c-0.7,2.86-0.61,5.13,0.25,6.83s2.5,2.55,4.9,2.56c2.26,0,4.42-0.95,5.95-2.62c1.79-1.86,3.04-4.18,3.6-6.7
			L148.22,28.62z"/>
	</g>
</g>
</svg>
