<?xml version="1.0" encoding="utf-8"?>
<!-- Generator: Adobe Illustrator 22.1.0, SVG Export Plug-In . SVG Version: 6.00 Build 0)  -->
<svg version="1.1" id="圖層_1" focusable="false" xmlns="http://www.w3.org/2000/svg" xmlns:xlink="http://www.w3.org/1999/xlink"
	 x="0px" y="0px" viewBox="0 0 512 512" style="enable-background:new 0 0 512 512;" xml:space="preserve">
<style type="text/css">
	.st0{fill:#231815;}
	.st1{fill:none;}
</style>
<path d="M961.7,33.7L961.7,33.7c15.6,0,31.2,1.7,46.4,5l0.1,0l0.1,0c23.8,5,46.5,13.8,67.4,26.1c21,12.3,39.6,27.9,55.6,46.3
	l0.1,0.1l0.1,0.1c14.9,16.9,27,36,36,56.7s14.7,42.6,16.8,65c2.2,22.6,0.8,45.4-4.1,67.6c-4.9,22.2-13.2,43.4-24.6,63.1
	c-11.9,20.4-26.9,38.6-44.5,54.3s-37.6,28.3-59.2,37.7l-0.1,0l-0.1,0c-20.7,9.2-42.7,15.1-65.3,17.5c-3.5,0.4-6.7,0.8-9.9,1.2
	l-0.8,0.1l-2.9,0.4H948c-1-0.2-2-0.5-3.2-0.6c-4.2-0.7-8.3-1.3-12.3-1.9L930,472l-0.2,0l-0.2,0c-9-1.1-18-2.7-26.8-4.7
	c-23.3-5.7-45.4-15.2-65.7-28.1c-20.3-13-38.2-29-53.2-47.8l-0.1-0.1l-0.1-0.1c-14-17-25.2-36-33.4-56.4
	c-8.2-20.4-13.1-41.9-14.7-63.9l0-0.1l0-0.1c-1.6-19.8-0.5-39.7,3.5-59.1l0,0l0,0c10.4-52,39.3-98.2,81.5-130.3l0.1-0.1l0.1-0.1
	c33.9-26.4,74.2-42.3,116.8-46.2l5.8-0.4c5.9-0.4,11.8-0.7,17.6-0.7h0h0L961.7,33.7 M961.8,3c-0.2,0-0.4,0-0.6,0
	c-6.6,0-13.2,0.2-19.9,0.7l0,0C890.6,7,842,25.4,801.9,56.7c-48.1,36.5-81.2,89.4-93,148.7c-4.5,22.2-5.9,45-4,67.7
	c3.6,50.4,22.8,98.4,54.9,137.4c34.5,43,82.2,73.5,135.7,86.6c10,2.3,20.1,4.1,30.4,5.3c4.8,0.7,9.8,1.3,14.6,2.2
	c1.2,0.2,2.2,0.5,3.3,0.7l1,0.2h30l4.5-0.6c3.4-0.5,6.9-0.9,10.5-1.3c25.7-2.7,50.8-9.4,74.5-19.9c49.5-21.4,90.9-58.1,118.1-104.7
	c26.2-45,37.7-97.1,32.8-149c-5-51.5-26.1-100.2-60.4-139c-36.4-42-85.6-71-140-82.4C997.3,4.9,979.6,3,961.8,3L961.8,3z"/>
<path d="M820.8,402.1c-3.3-2.7-6.3-5.8-9.8-8.4c-2.4-1.4-3.2-4.5-1.8-6.9c0.1-0.1,0.1-0.2,0.2-0.3c8.1-17.4,19.1-33.3,32.6-47
	c24.9-25.7,57.7-42.3,93.1-47.2c48.6-7.8,98.1,6.7,134.8,39.5c17.3,15.1,31.2,33.7,40.6,54.6c1.6,2.4,1,5.7-1.4,7.3
	c-29.3,27.3-65.7,45.9-105,53.8c-14.4,2.9-29.3,3.8-37,4.8C914.1,453.4,862.2,435.6,820.8,402.1z"/>
<path d="M959.5,265.3c-47.3-0.1-85.8-38.3-86.1-85.7c1.2-47.9,41-85.8,88.9-84.6c46.5,1.2,83.9,38.8,84.6,85.4
	C1046,227.9,1007,265.8,959.5,265.3L959.5,265.3L959.5,265.3z"/>
<g>
	<path class="st0" d="M8.5,230.8c-2.6,0-5.2-1.2-6.9-3.5c-2.7-3.8-1.9-9.1,1.9-11.8L235.8,48.4c12.1-8.7,28.3-8.7,40.5,0
		l232.2,167.1c3.8,2.7,4.7,8,1.9,11.8c-2.7,3.8-8,4.7-11.8,1.9L266.3,62.1c-6.2-4.5-14.5-4.4-20.7,0L13.4,229.2
		C11.9,230.3,10.2,230.8,8.5,230.8"/>
	<path class="st0" d="M356.7,437.1H145.1c-4.7,0-8.5-3.8-8.5-8.5s3.8-8.5,8.5-8.5h211.6c35.8,0,64.9-29.1,64.9-64.9
		c0-30-24.4-54.4-54.4-54.4H174.5c-35,0-63.5-28.5-63.5-63.5c0-30.3,24.7-55,55-55h137.4c14.6,0,26.4-11.9,26.4-26.4
		c0-13-10.6-23.5-23.5-23.5h-23.2c-19.7,0-35.7-16-35.7-35.7V50.3c0-4.7,3.8-8.5,8.5-8.5c4.7,0,8.5,3.8,8.5,8.5v46.3
		c0,10.3,8.4,18.7,18.7,18.7h23.2c22.3,0,40.5,18.2,40.5,40.5c0,23.9-19.5,43.4-43.4,43.4H166.1c-21,0-38.1,17.1-38.1,38.1
		c0,25.7,20.9,46.6,46.6,46.6h192.7c39.3,0,71.3,32,71.3,71.3C438.6,400.4,401.8,437.1,356.7,437.1"/>
	<path class="st0" d="M176.9,470.2c-1.9,0-3.9-0.7-5.4-2l-39.2-33c-1.9-1.6-3-3.9-3-6.3c0-2.4,0.9-4.8,2.8-6.4l39.2-35.9
		c3.4-3.1,8.8-2.9,12,0.5c3.1,3.4,2.9,8.8-0.5,12l-32.1,29.4l31.9,26.8c3.6,3,4,8.4,1,11.9C181.7,469.1,179.3,470.2,176.9,470.2"/>
</g>
<path class="st0" d="M1084.2,1230.3c-1.6,0-3.2-0.5-4.5-1.6c-3-2.5-3.3-6.9-0.8-9.8l27.2-32.4c1.3-1.5,3.2-2.4,5.2-2.5
	c1.9-0.2,3.9,0.8,5.3,2.3l29.6,32.4c2.6,2.8,2.4,7.3-0.4,9.9s-7.3,2.4-9.9-0.4l-24.3-26.5l-22.1,26.3
	C1088.1,1229.4,1086.1,1230.3,1084.2,1230.3"/>
<path class="st0" d="M1113.8,1367.2c-2,0-3.8-0.8-5.1-2.3l-29.6-32.3c-2.6-2.8-2.4-7.3,0.4-9.9c2.9-2.6,7.3-2.4,9.9,0.4l24.3,26.5
	l22.1-26.3c2.5-3,6.9-3.3,9.8-0.8c3,2.5,3.3,6.9,0.8,9.8l-27.2,32.4c-1.3,1.5-3.2,2.4-5.2,2.5H1113.8z"/>
<path class="st0" d="M1128.4,1373.5h-64.9c-3.9,0-7-3.1-7-7c0-3.9,3.1-7,7-7h64.9c8.5,0,16.8-2.8,23.6-8l220.5-168.4
	c11.4-8.7,27.1-9.3,39-1.4l67.2,44.1c3.2,2.1,4.1,6.4,2,9.7c-2.1,3.2-6.5,4.1-9.7,2l-67.2-44.1c-7-4.6-16.2-4.3-22.9,0.8
	l-220.5,168.4C1151.3,1369.7,1139.9,1373.5,1128.4,1373.5"/>
<path class="st0" d="M1112.6,1357.2c-3.9,0-7-3.1-7-7v-148.5c0-3.9,3.1-7,7-7c3.9,0,7,3.1,7,7v148.5
	C1119.6,1354,1116.5,1357.2,1112.6,1357.2"/>
<path class="st0" d="M1137.7,1187.9h-4.7c-2.6,0-4.7-2.1-4.7-4.7c0-2.6,2.1-4.7,4.7-4.7h4.7c2.6,0,4.7,2.1,4.7,4.7
	C1142.3,1185.8,1140.3,1187.9,1137.7,1187.9"/>
<path class="st0" d="M1322.1,1187.9h-9.2c-2.6,0-4.7-2.1-4.7-4.7c0-2.6,2.1-4.7,4.7-4.7h9.2c2.6,0,4.7,2.1,4.7,4.7
	C1326.7,1185.8,1324.7,1187.9,1322.1,1187.9 M1285.2,1187.9h-9.2c-2.6,0-4.7-2.1-4.7-4.7c0-2.6,2.1-4.7,4.7-4.7h9.2
	c2.6,0,4.7,2.1,4.7,4.7C1289.9,1185.8,1287.8,1187.9,1285.2,1187.9 M1248.3,1187.9h-9.2c-2.6,0-4.7-2.1-4.7-4.7
	c0-2.6,2.1-4.7,4.7-4.7h9.2c2.6,0,4.7,2.1,4.7,4.7C1253,1185.8,1250.9,1187.9,1248.3,1187.9 M1211.4,1187.9h-9.2
	c-2.6,0-4.7-2.1-4.7-4.7c0-2.6,2.1-4.7,4.7-4.7h9.2c2.6,0,4.7,2.1,4.7,4.7C1216.1,1185.8,1214,1187.9,1211.4,1187.9 M1174.6,1187.9
	h-9.2c-2.6,0-4.7-2.1-4.7-4.7c0-2.6,2.1-4.7,4.7-4.7h9.2c2.6,0,4.7,2.1,4.7,4.7C1179.2,1185.8,1177.1,1187.9,1174.6,1187.9"/>
<path class="st0" d="M1354.4,1187.9h-4.7c-2.6,0-4.7-2.1-4.7-4.7c0-2.6,2.1-4.7,4.7-4.7h4.7c2.6,0,4.7,2.1,4.7,4.7
	C1359,1185.8,1357,1187.9,1354.4,1187.9"/>
<path class="st0" d="M2333.7,1392.3h-38.1v-4.7c0-29.9-16.7-56.8-43.6-70.1l-4.2-2.1l16.9-34.2l4.2,2.1
	c40,19.8,64.9,59.8,64.9,104.3V1392.3z M2304.7,1383h19.6c-1.6-37.5-22.5-71-55.5-89.1l-8.6,17.5
	C2286.5,1326.1,2303.2,1352.9,2304.7,1383"/>
<polygon class="st0" points="2374.3,1306.8 2374.5,1306.8 2385.6,1272.4 2400.8,1272.4 2400.8,1321.6 2389.3,1321.6 2389.3,1289.9 
	2389.1,1289.9 2378.3,1321.6 2370.6,1321.6 2359.9,1290.3 2359.7,1290.4 2359.7,1321.6 2348.3,1321.6 2348.3,1272.4 2363.3,1272.4 
	"/>
<path class="st0" d="M2435,1312.1h-14.7l-2.8,9.6h-12l16.1-49.3h6.1v0l0,0h6.1l16.1,49.3h-12L2435,1312.1z M2423,1303.3h9.4
	l-4.6-15.3h-0.2L2423,1303.3z"/>
<polygon class="st0" points="2471.4,1289 2479.6,1272.4 2492.8,1272.4 2478.7,1296.8 2493.8,1321.6 2480,1321.6 2471.6,1304.7 
	2463.2,1321.6 2450,1321.6 2464.5,1296.8 2450.4,1272.4 2463.5,1272.4 "/>
<path class="st0" d="M2590.6,1394.6h-384.5l160.3-324.7c1.7-3.5,5.9-4.9,9.4-3.2c3.5,1.7,4.9,5.9,3.2,9.3l-150.3,304.6h362
	c3.9,0,7,3.1,7,7C2597.5,1391.5,2594.4,1394.6,2590.6,1394.6"/>
<path class="st0" d="M1714.2,1406.1c-1.8,0-3.5-0.7-4.8-1.9c-1.3-1.3-2.1-3-2.2-4.9l-8.5-290c-0.1-2.8,1.5-5.4,4.1-6.6
	c2.6-1.2,5.6-0.7,7.6,1.3l298.5,281.5c2.1,1.9,2.7,4.9,1.7,7.6c-1,2.6-3.5,4.4-6.3,4.5l-290,8.5
	C1714.3,1406.1,1714.3,1406.1,1714.2,1406.1 M1713.2,1125.8l7.8,266.2l266.2-7.8L1713.2,1125.8z"/>
<path class="st0" d="M1784.9,1331.8c-3.8,0-6.9-3-7-6.8l-2.3-78.3c-0.1-2.8,1.5-5.4,4.1-6.6c2.6-1.2,5.6-0.7,7.7,1.3l80.6,76
	c2.1,1.9,2.7,4.9,1.7,7.6c-1,2.6-3.5,4.4-6.3,4.5l-78.3,2.3C1785.1,1331.8,1785,1331.8,1784.9,1331.8 M1790.1,1263.2l1.6,54.5
	l54.5-1.6L1790.1,1263.2z"/>
<path class="st0" d="M1708,1192.7c-2.5,0-4.6-2-4.7-4.5c-0.1-2.6,1.9-4.7,4.5-4.8l28.3-0.8c2.6,0,4.7,2,4.8,4.5
	c0.1,2.6-1.9,4.7-4.5,4.8l-28.3,0.8H1708z"/>
<path class="st0" d="M1708.6,1213.9c-2.5,0-4.6-2-4.7-4.5c-0.1-2.6,1.9-4.7,4.5-4.8l19.6-0.6c2.5,0.1,4.7,2,4.8,4.5
	c0.1,2.6-1.9,4.7-4.5,4.8l-19.6,0.6H1708.6z"/>
<path class="st0" d="M1709.3,1235c-2.5,0-4.6-2-4.7-4.5c-0.1-2.6,1.9-4.7,4.5-4.8l19.6-0.6c2.6,0,4.7,2,4.8,4.5
	c0.1,2.6-1.9,4.7-4.5,4.8l-19.6,0.6H1709.3z"/>
<path class="st0" d="M1709.9,1256.1c-2.5,0-4.6-2-4.7-4.5c-0.1-2.6,1.9-4.7,4.5-4.8l19.6-0.6c2.5,0.1,4.7,2,4.8,4.5
	c0.1,2.6-1.9,4.7-4.5,4.8l-19.6,0.6H1709.9z"/>
<path class="st0" d="M1710.5,1277.2c-2.5,0-4.6-2-4.7-4.5c-0.1-2.6,1.9-4.7,4.5-4.8l19.6-0.6c2.7-0.1,4.7,2,4.8,4.5
	c0.1,2.6-1.9,4.7-4.5,4.8l-19.6,0.6H1710.5z"/>
<path class="st0" d="M1711.1,1298.3c-2.5,0-4.6-2-4.7-4.5c-0.1-2.6,1.9-4.7,4.5-4.8l28.3-0.8c2.6,0,4.7,1.9,4.8,4.5
	c0.1,2.6-1.9,4.7-4.5,4.8l-28.3,0.8H1711.1z"/>
<path class="st0" d="M1706.8,1150.5c-2.5,0-4.6-2-4.7-4.5c-0.1-2.6,1.9-4.7,4.5-4.8l19.6-0.6c2.6,0.1,4.7,2,4.8,4.5
	c0.1,2.6-1.9,4.7-4.5,4.8l-19.6,0.6H1706.8z"/>
<path class="st0" d="M1707.4,1171.6c-2.5,0-4.6-2-4.7-4.5c-0.1-2.6,1.9-4.7,4.5-4.8l19.6-0.6c2.4-0.1,4.7,2,4.8,4.5
	c0.1,2.6-1.9,4.7-4.5,4.8l-19.6,0.6H1707.4z"/>
<path class="st0" d="M1708,1192.7c-2.5,0-4.6-2-4.7-4.5c-0.1-2.6,1.9-4.7,4.5-4.8l28.3-0.8c2.6,0,4.7,2,4.8,4.5
	c0.1,2.6-1.9,4.7-4.5,4.8l-28.3,0.8H1708z"/>
<path class="st0" d="M1711.7,1319.4c-2.5,0-4.6-2-4.7-4.5c-0.1-2.6,1.9-4.7,4.5-4.8l19.6-0.6c2.5,0.1,4.7,2,4.8,4.5
	c0.1,2.6-1.9,4.7-4.5,4.8l-19.6,0.6H1711.7z"/>
<path class="st0" d="M1712.3,1340.5c-2.5,0-4.6-2-4.7-4.5c-0.1-2.6,1.9-4.7,4.5-4.8l19.6-0.6c2.6-0.1,4.7,1.9,4.8,4.5
	c0.1,2.6-1.9,4.7-4.5,4.8l-19.6,0.6H1712.3z"/>
<path class="st0" d="M1713,1361.6c-2.5,0-4.6-2-4.7-4.5c-0.1-2.6,1.9-4.7,4.5-4.8l19.6-0.6c2.5,0,4.7,2,4.8,4.5
	c0.1,2.6-1.9,4.7-4.5,4.8l-19.6,0.6H1713z"/>
<path class="st0" d="M1713.6,1382.7c-2.5,0-4.6-2-4.7-4.5c-0.1-2.6,1.9-4.7,4.5-4.8l19.6-0.6c2.7-0.1,4.7,2,4.8,4.5
	c0.1,2.6-1.9,4.7-4.5,4.8l-19.6,0.6H1713.6z"/>
<path class="st0" d="M3213.4,1197.6c-0.9,0-1.9-0.3-2.7-0.9l-191.5-137.8c-5.9-4.2-13.9-4.3-19.8,0l-191.5,137.8
	c-2.1,1.5-5,1-6.5-1.1s-1-5,1.1-6.5l191.5-137.8c9.2-6.6,21.5-6.6,30.6,0l191.5,137.8c2.1,1.5,2.6,4.4,1.1,6.5
	C3216.2,1196.9,3214.8,1197.6,3213.4,1197.6"/>
<path class="st0" d="M3145,1255.1c-1.1,0-2.2-0.4-3.1-1.2l-127.3-115.6c-3.2-2.9-7.3-3-10.5,0l-127.3,115.6
	c-1.9,1.7-4.8,1.6-6.6-0.3c-1.7-1.9-1.6-4.8,0.3-6.6l127.3-115.6c6.8-6.2,16.3-6.2,23,0l127.3,115.6c1.9,1.7,2,4.7,0.3,6.6
	C3147.5,1254.6,3146.2,1255.1,3145,1255.1"/>
<path class="st0" d="M3086.7,1314.3c-1.1,0-2.2-0.4-3.1-1.2l-72.7-66c-1.1-1-2.2-1-3.3,0l-72.7,66c-1.9,1.7-4.8,1.6-6.6-0.3
	c-1.7-1.9-1.6-4.8,0.3-6.6l72.7-66c4.6-4.2,11.2-4.2,15.8,0l72.7,66c1.9,1.7,2,4.7,0.3,6.6C3089.3,1313.8,3088,1314.3,3086.7,1314.3
	"/>
<path class="st0" d="M3010.5,1400.8c-1.3,0-2.5-0.5-3.4-1.5l-29.6-32.4c-1.7-1.9-1.6-4.8,0.3-6.6c1.9-1.7,4.8-1.6,6.6,0.3l26,28.4
	l23.8-28.3c1.7-2,4.6-2.2,6.6-0.6c2,1.7,2.2,4.6,0.6,6.6l-27.2,32.3c-0.9,1-2.1,1.6-3.5,1.7H3010.5z"/>
<path class="st0" d="M3094.3,1319.1c-0.1,0-0.1,0-0.2,0l-43.8-1.9c-2.6-0.1-4.6-2.3-4.5-4.8c0.1-2.6,2.1-4.7,4.8-4.4l38.5,1.7
	l-3.2-36.9c-0.2-2.6,1.7-4.8,4.2-5c2.5-0.3,4.8,1.7,5,4.2l3.6,42.1c0.1,1.3-0.4,2.6-1.3,3.6
	C3096.7,1318.6,3095.5,1319.1,3094.3,1319.1"/>
<path class="st0" d="M3148.6,1255.1c-0.1,0-0.1,0-0.2,0l-43.8-1.9c-2.6-0.1-4.6-2.3-4.5-4.8c0.1-2.6,2.3-4.6,4.8-4.4l38.5,1.7
	l-3.2-36.9c-0.2-2.6,1.7-4.8,4.2-5c2.5-0.3,4.8,1.7,5,4.2l3.6,42.1c0.1,1.3-0.4,2.6-1.3,3.6
	C3151.1,1254.6,3149.9,1255.1,3148.6,1255.1"/>
<path class="st0" d="M2927.9,1319.1c-1.3,0-2.5-0.5-3.4-1.4c-0.9-1-1.4-2.3-1.3-3.6l3.6-42.1c0.2-2.6,2.6-4.4,5-4.2
	c2.6,0.2,4.4,2.5,4.2,5l-3.2,36.9l38.5-1.7c2.5-0.2,4.7,1.9,4.8,4.4c0.1,2.6-1.9,4.7-4.5,4.8l-43.8,1.9
	C2928.1,1319.1,2928,1319.1,2927.9,1319.1"/>
<path class="st0" d="M2873.6,1255.1c-1.3,0-2.5-0.5-3.4-1.4c-0.9-1-1.4-2.3-1.3-3.6l3.6-42.1c0.2-2.6,2.5-4.4,5-4.2
	c2.6,0.2,4.4,2.5,4.2,5l-3.2,36.9l38.5-1.7c2.4-0.2,4.7,1.9,4.8,4.4c0.1,2.6-1.9,4.7-4.5,4.8l-43.8,1.9
	C2873.7,1255.1,2873.6,1255.1,2873.6,1255.1"/>
<path class="st0" d="M3009.3,1394.6c-2.6,0-4.7-2.1-4.7-4.7v-338.9c0-2.6,2.1-4.7,4.7-4.7c2.6,0,4.7,2.1,4.7,4.7V1390
	C3013.9,1392.6,3011.8,1394.6,3009.3,1394.6"/>
<path class="st0" d="M3650.2,1047.6c2.3,6.7-1.3,13.9-8,16.2c-6.7,2.3-13.9-1.3-16.2-8c-2.3-6.7,1.3-13.9,8-16.2
	C3640.7,1037.3,3648,1040.9,3650.2,1047.6"/>
<path class="st0" d="M3707.2,1028.2c2.3,6.7-1.3,13.9-8,16.2c-6.7,2.3-13.9-1.3-16.2-8c-2.3-6.7,1.3-13.9,8-16.2
	C3697.7,1018,3705,1021.6,3707.2,1028.2"/>
<path class="st0" d="M3471,1146c-1.9,0-3.8-1.2-4.4-3.2c-0.8-2.4,0.5-5.1,2.9-5.9l421.3-142.8c2.4-0.8,5.1,0.5,5.9,2.9
	c0.8,2.4-0.5,5.1-2.9,5.9l-421.3,142.8C3472,1145.9,3471.5,1146,3471,1146"/>
<path class="st0" d="M3681.1,1180.5c-2.6,0-4.7-2.1-4.7-4.7v-105.7c0-2.6,2.1-4.7,4.7-4.7c2.6,0,4.7,2.1,4.7,4.7v105.7
	C3685.7,1178.5,3683.6,1180.5,3681.1,1180.5"/>
<path class="st0" d="M3802.8,1415.3H3562c-38.5,0-69.9-31.3-69.9-69.9V1242c0-38.5,31.3-69.9,69.9-69.9h240.8
	c38.5,0,69.9,31.3,69.9,69.9v103.5C3872.7,1384,3841.3,1415.3,3802.8,1415.3 M3562,1181.5c-33.4,0-60.5,27.2-60.5,60.5v103.5
	c0,33.4,27.2,60.6,60.5,60.6h240.8c33.4,0,60.6-27.2,60.6-60.6V1242c0-33.4-27.2-60.5-60.6-60.5H3562z"/>
<path class="st0" d="M3584.9,1288.9h-33.9c-13.9,0-25.1-11.3-25.1-25.2v-33.9c0-13.9,11.3-25.2,25.1-25.2h33.9
	c13.9,0,25.2,11.3,25.2,25.2v33.9C3610,1277.6,3598.7,1288.9,3584.9,1288.9 M3550.9,1214c-8.7,0-15.8,7.1-15.8,15.8v33.9
	c0,8.7,7.1,15.8,15.8,15.8h33.9c8.7,0,15.8-7.1,15.8-15.8v-33.9c0-8.7-7.1-15.8-15.8-15.8H3550.9z"/>
<path class="st0" d="M3698,1288.9h-33.9c-13.9,0-25.2-11.3-25.2-25.2v-33.9c0-13.9,11.3-25.2,25.2-25.2h33.9
	c13.9,0,25.2,11.3,25.2,25.2v33.9C3723.2,1277.6,3711.9,1288.9,3698,1288.9 M3664.1,1214c-8.7,0-15.8,7.1-15.8,15.8v33.9
	c0,8.7,7.1,15.8,15.8,15.8h33.9c8.7,0,15.8-7.1,15.8-15.8v-33.9c0-8.7-7.1-15.8-15.8-15.8H3664.1z"/>
<path class="st0" d="M3810.3,1288.9h-33.9c-13.9,0-25.1-11.3-25.1-25.2v-33.9c0-13.9,11.3-25.2,25.1-25.2h33.9
	c13.9,0,25.1,11.3,25.1,25.2v33.9C3835.5,1277.6,3824.2,1288.9,3810.3,1288.9 M3776.4,1214c-8.7,0-15.8,7.1-15.8,15.8v33.9
	c0,8.7,7.1,15.8,15.8,15.8h33.9c8.7,0,15.8-7.1,15.8-15.8v-33.9c0-8.7-7.1-15.8-15.8-15.8H3776.4z"/>
<path class="st0" d="M3868,1310.3h-371.2c-2.6,0-4.7-2.1-4.7-4.7c0-2.6,2.1-4.7,4.7-4.7H3868c2.6,0,4.7,2.1,4.7,4.7
	C3872.7,1308.3,3870.6,1310.3,3868,1310.3"/>
<rect x="382" y="993.9" class="st1" width="3515" height="421.4"/>
</svg>
