<?xml version="1.0" encoding="utf-8"?>
<!-- Generator: Adobe Illustrator 22.1.0, SVG Export Plug-In . SVG Version: 6.00 Build 0)  -->
<svg version="1.1" id="圖層_1" focusable="false" xmlns="http://www.w3.org/2000/svg" xmlns:xlink="http://www.w3.org/1999/xlink"
	 x="0px" y="0px" viewBox="0 0 512 512" style="enable-background:new 0 0 512 512;" xml:space="preserve">
<style type="text/css">
	.st0{fill:#231815;}
</style>
<g>
	<path class="st0" d="M166.9,467.9H117v-6.1c0-39.1-21.9-74.2-57.1-91.7l-5.4-2.7l22.1-44.7l5.5,2.7c52.4,25.9,84.9,78.2,84.9,136.4
		V467.9z M129,455.7h25.6c-2.1-49.1-29.4-92.9-72.6-116.6l-11.3,22.9C105.2,381.4,127,416.4,129,455.7"/>
	<polygon class="st0" points="220,356.1 220.3,356.1 234.8,311 254.6,311 254.6,375.5 239.6,375.5 239.6,333.9 239.4,333.9 
		225.2,375.5 215.1,375.5 201.2,334.5 200.9,334.6 200.9,375.5 186,375.5 186,311 205.6,311 	"/>
	<path class="st0" d="M299.4,362.9h-19.2l-3.7,12.5h-15.8l21-64.4h8v0l0,0h8l21.1,64.4h-15.8L299.4,362.9z M283.7,351.4h12.3l-6-20
		h-0.3L283.7,351.4z"/>
	<polygon class="st0" points="347.1,332.8 357.7,311 374.9,311 356.5,343 376.4,375.5 358.2,375.5 347.2,353.3 336.3,375.5 
		319,375.5 337.9,343 319.5,311 336.6,311 	"/>
	<path class="st0" d="M502.9,470.9H0L209.6,46.2c2.2-4.5,7.7-6.4,12.2-4.1c4.5,2.2,6.4,7.7,4.2,12.2L29.4,452.7h473.5
		c5,0,9.1,4.1,9.1,9.1C512,466.8,507.9,470.9,502.9,470.9"/>
</g>
<path class="st0" d="M3213.4,1197.6c-0.9,0-1.9-0.3-2.7-0.9l-191.5-137.8c-5.9-4.2-13.9-4.3-19.8,0l-191.5,137.8
	c-2.1,1.5-5,1-6.5-1.1s-1-5,1.1-6.5l191.5-137.8c9.2-6.6,21.5-6.6,30.6,0l191.5,137.8c2.1,1.5,2.6,4.4,1.1,6.5
	C3216.2,1196.9,3214.8,1197.6,3213.4,1197.6"/>
<path class="st0" d="M3145,1255.1c-1.1,0-2.2-0.4-3.1-1.2l-127.3-115.6c-3.2-2.9-7.3-3-10.5,0l-127.3,115.6
	c-1.9,1.7-4.8,1.6-6.6-0.3c-1.7-1.9-1.6-4.8,0.3-6.6l127.3-115.6c6.8-6.2,16.3-6.2,23,0l127.3,115.6c1.9,1.7,2,4.7,0.3,6.6
	C3147.5,1254.6,3146.2,1255.1,3145,1255.1"/>
<path class="st0" d="M3086.7,1314.3c-1.1,0-2.2-0.4-3.1-1.2l-72.7-66c-1.1-1-2.2-1-3.3,0l-72.7,66c-1.9,1.7-4.8,1.6-6.6-0.3
	c-1.7-1.9-1.6-4.8,0.3-6.6l72.7-66c4.6-4.2,11.2-4.2,15.8,0l72.7,66c1.9,1.7,2,4.7,0.3,6.6C3089.3,1313.8,3088,1314.3,3086.7,1314.3
	"/>
<path class="st0" d="M3010.5,1400.8c-1.3,0-2.5-0.5-3.4-1.5l-29.6-32.4c-1.7-1.9-1.6-4.8,0.3-6.6c1.9-1.7,4.8-1.6,6.6,0.3l26,28.4
	l23.8-28.3c1.7-2,4.6-2.2,6.6-0.6c2,1.7,2.2,4.6,0.6,6.6l-27.2,32.3c-0.9,1-2.1,1.6-3.5,1.7H3010.5z"/>
<path class="st0" d="M3094.3,1319.1c-0.1,0-0.1,0-0.2,0l-43.8-1.9c-2.6-0.1-4.6-2.3-4.5-4.8c0.1-2.6,2.1-4.7,4.8-4.4l38.5,1.7
	l-3.2-36.9c-0.2-2.6,1.7-4.8,4.2-5c2.5-0.3,4.8,1.7,5,4.2l3.6,42.1c0.1,1.3-0.4,2.6-1.3,3.6
	C3096.7,1318.6,3095.5,1319.1,3094.3,1319.1"/>
<path class="st0" d="M3148.6,1255.1c-0.1,0-0.1,0-0.2,0l-43.8-1.9c-2.6-0.1-4.6-2.3-4.5-4.8c0.1-2.6,2.3-4.6,4.8-4.4l38.5,1.7
	l-3.2-36.9c-0.2-2.6,1.7-4.8,4.2-5c2.5-0.3,4.8,1.7,5,4.2l3.6,42.1c0.1,1.3-0.4,2.6-1.3,3.6
	C3151.1,1254.6,3149.9,1255.1,3148.6,1255.1"/>
<path class="st0" d="M2927.9,1319.1c-1.3,0-2.5-0.5-3.4-1.4c-0.9-1-1.4-2.3-1.3-3.6l3.6-42.1c0.2-2.6,2.6-4.4,5-4.2
	c2.6,0.2,4.4,2.5,4.2,5l-3.2,36.9l38.5-1.7c2.5-0.2,4.7,1.9,4.8,4.4c0.1,2.6-1.9,4.7-4.5,4.8l-43.8,1.9
	C2928.1,1319.1,2928,1319.1,2927.9,1319.1"/>
<path class="st0" d="M2873.6,1255.1c-1.3,0-2.5-0.5-3.4-1.4c-0.9-1-1.4-2.3-1.3-3.6l3.6-42.1c0.2-2.6,2.5-4.4,5-4.2
	c2.6,0.2,4.4,2.5,4.2,5l-3.2,36.9l38.5-1.7c2.4-0.2,4.7,1.9,4.8,4.4c0.1,2.6-1.9,4.7-4.5,4.8l-43.8,1.9
	C2873.7,1255.1,2873.6,1255.1,2873.6,1255.1"/>
<path class="st0" d="M3009.3,1394.6c-2.6,0-4.7-2.1-4.7-4.7v-338.9c0-2.6,2.1-4.7,4.7-4.7c2.6,0,4.7,2.1,4.7,4.7V1390
	C3013.9,1392.6,3011.8,1394.6,3009.3,1394.6"/>
<path class="st0" d="M3650.2,1047.6c2.3,6.7-1.3,13.9-8,16.2c-6.7,2.3-13.9-1.3-16.2-8c-2.3-6.7,1.3-13.9,8-16.2
	C3640.7,1037.3,3648,1040.9,3650.2,1047.6"/>
<path class="st0" d="M3707.2,1028.2c2.3,6.7-1.3,13.9-8,16.2c-6.7,2.3-13.9-1.3-16.2-8c-2.3-6.7,1.3-13.9,8-16.2
	C3697.7,1018,3705,1021.6,3707.2,1028.2"/>
<path class="st0" d="M3471,1146c-1.9,0-3.8-1.2-4.4-3.2c-0.8-2.4,0.5-5.1,2.9-5.9l421.3-142.8c2.4-0.8,5.1,0.5,5.9,2.9
	c0.8,2.4-0.5,5.1-2.9,5.9l-421.3,142.8C3472,1145.9,3471.5,1146,3471,1146"/>
<path class="st0" d="M3681.1,1180.5c-2.6,0-4.7-2.1-4.7-4.7v-105.7c0-2.6,2.1-4.7,4.7-4.7c2.6,0,4.7,2.1,4.7,4.7v105.7
	C3685.7,1178.5,3683.6,1180.5,3681.1,1180.5"/>
<path class="st0" d="M3802.8,1415.3H3562c-38.5,0-69.9-31.3-69.9-69.9V1242c0-38.5,31.3-69.9,69.9-69.9h240.8
	c38.5,0,69.9,31.3,69.9,69.9v103.5C3872.7,1384,3841.3,1415.3,3802.8,1415.3 M3562,1181.5c-33.4,0-60.5,27.2-60.5,60.5v103.5
	c0,33.4,27.2,60.6,60.5,60.6h240.8c33.4,0,60.6-27.2,60.6-60.6V1242c0-33.4-27.2-60.5-60.6-60.5H3562z"/>
<path class="st0" d="M3584.9,1288.9h-33.9c-13.9,0-25.1-11.3-25.1-25.2v-33.9c0-13.9,11.3-25.2,25.1-25.2h33.9
	c13.9,0,25.2,11.3,25.2,25.2v33.9C3610,1277.6,3598.7,1288.9,3584.9,1288.9 M3550.9,1214c-8.7,0-15.8,7.1-15.8,15.8v33.9
	c0,8.7,7.1,15.8,15.8,15.8h33.9c8.7,0,15.8-7.1,15.8-15.8v-33.9c0-8.7-7.1-15.8-15.8-15.8H3550.9z"/>
<path class="st0" d="M3698,1288.9h-33.9c-13.9,0-25.2-11.3-25.2-25.2v-33.9c0-13.9,11.3-25.2,25.2-25.2h33.9
	c13.9,0,25.2,11.3,25.2,25.2v33.9C3723.2,1277.6,3711.9,1288.9,3698,1288.9 M3664.1,1214c-8.7,0-15.8,7.1-15.8,15.8v33.9
	c0,8.7,7.1,15.8,15.8,15.8h33.9c8.7,0,15.8-7.1,15.8-15.8v-33.9c0-8.7-7.1-15.8-15.8-15.8H3664.1z"/>
<path class="st0" d="M3810.3,1288.9h-33.9c-13.9,0-25.1-11.3-25.1-25.2v-33.9c0-13.9,11.3-25.2,25.1-25.2h33.9
	c13.9,0,25.1,11.3,25.1,25.2v33.9C3835.5,1277.6,3824.2,1288.9,3810.3,1288.9 M3776.4,1214c-8.7,0-15.8,7.1-15.8,15.8v33.9
	c0,8.7,7.1,15.8,15.8,15.8h33.9c8.7,0,15.8-7.1,15.8-15.8v-33.9c0-8.7-7.1-15.8-15.8-15.8H3776.4z"/>
<path class="st0" d="M3868,1310.3h-371.2c-2.6,0-4.7-2.1-4.7-4.7c0-2.6,2.1-4.7,4.7-4.7H3868c2.6,0,4.7,2.1,4.7,4.7
	C3872.7,1308.3,3870.6,1310.3,3868,1310.3"/>
</svg>
