<svg id="bus_x5F_to_x5F_plane" enable-background="new 0 0 300 300" height="512" viewBox="0 0 300 300" width="512" xmlns="http://www.w3.org/2000/svg"><circle cx="130.815" cy="144" fill="#edebdc" r="92"/><path d="m108.815 60c-.835 0-1.634.133-2.409.325.256-1.405.409-2.846.409-4.325 0-13.255-10.745-24-24-24s-24 10.745-24 24c0 .252.03.496.038.747-1.267-.456-2.614-.747-4.038-.747-6.627 0-12 5.373-12 12s5.373 12 12 12h54c5.523 0 10-4.477 10-10s-4.477-10-10-10z" fill="#fff"/><path d="m108.815 84h-54c-8.824 0-16-7.176-16-16s7.176-16 16-16c.094 0 .191 0 .285.004 1.946-13.555 13.633-24.004 27.715-24.004 15.438 0 28 12.562 28 28v.141c6.773.977 12 6.82 12 13.859 0 7.719-6.281 14-14 14zm-54-24c-4.41 0-8 3.59-8 8s3.59 8 8 8h54c3.309 0 6-2.691 6-6s-2.691-6-6-6c-.414 0-.875.066-1.453.207-1.309.328-2.711-.039-3.699-.973-.988-.93-1.438-2.297-1.191-3.633.23-1.262.344-2.438.344-3.602 0-11.027-8.973-20-20-20s-20 8.973-20 20c.004.055.035.566.039.621.039 1.32-.574 2.578-1.645 3.359-1.07.777-2.457.973-3.699.531-.969-.342-1.852-.51-2.696-.51z" fill="#4c241d"/><path d="m177.61 41.412 67.8 67.8 14.125-14.125-8.475-8.475-8.475 2.825-16.95-16.95 25.425-2.825-14.125-14.125-25.425-2.825-8.669-8.669c-6.527-6.527-16.658-7.774-24.573-3.025z" fill="#fff"/><g fill="#4c241d"><path d="m245.409 113.211c-1.062 0-2.078-.422-2.828-1.172l-67.797-67.801c-.871-.871-1.293-2.094-1.141-3.316.148-1.223.852-2.305 1.906-2.941l.656-.395c9.516-5.699 21.625-4.211 29.465 3.629l7.676 7.676 24.031 2.668c.902.102 1.746.504 2.387 1.148l14.125 14.125c1.086 1.086 1.457 2.699.945 4.152-.508 1.449-1.805 2.48-3.332 2.652l-17.156 1.906 9.32 9.316 6.129-2.039c1.441-.484 3.023-.105 4.094.965l8.473 8.473c1.562 1.562 1.562 4.094 0 5.656l-14.125 14.125c-.75.751-1.766 1.173-2.828 1.173zm-60.879-70.539 60.879 60.883 8.469-8.469-3.898-3.895-6.129 2.043c-1.438.473-3.027.102-4.094-.969l-16.949-16.949c-1.086-1.086-1.457-2.699-.945-4.152.508-1.449 1.805-2.48 3.332-2.652l17.156-1.906-7.25-7.25-24.031-2.668c-.902-.102-1.746-.504-2.387-1.148l-8.668-8.668c-4.137-4.138-10.067-5.618-15.485-4.2z"/><path d="m168.819 92c-.012 0-.023 0-.031 0-3.742-.008-7.254-1.473-9.891-4.121-2.641-2.648-4.09-6.168-4.082-9.906.008-3.742 1.473-7.254 4.121-9.891 2.641-2.633 6.148-4.082 9.875-4.082h.031c3.742.008 7.254 1.473 9.891 4.121 2.641 2.648 4.09 6.168 4.082 9.906-.008 3.742-1.473 7.254-4.121 9.891-2.64 2.633-6.148 4.082-9.875 4.082zm-.008-20c-1.598 0-3.098.621-4.23 1.75-1.137 1.129-1.762 2.637-1.766 4.238s.617 3.109 1.75 4.246c1.129 1.137 2.637 1.762 4.238 1.766h.016c1.598 0 3.098-.621 4.23-1.75 1.137-1.129 1.762-2.637 1.766-4.238s-.617-3.109-1.75-4.246c-1.129-1.137-2.637-1.762-4.238-1.766-.004 0-.008 0-.016 0z"/><circle cx="136.996" cy="37.975" r="4.529"/><circle cx="240.996" cy="129.975" r="4.529"/><circle cx="40.996" cy="121.975" r="4.529"/><path d="m227.628 237.219c-1.027 0-2.051-.391-2.832-1.176-1.562-1.566-1.555-4.098.008-5.656l14.723-14.672c1.566-1.562 4.098-1.559 5.656.008 1.562 1.566 1.555 4.098-.008 5.656l-14.723 14.672c-.781.777-1.805 1.168-2.824 1.168z"/><path d="m242.323 237.246c-1.027 0-2.051-.391-2.832-1.176l-14.668-14.723c-1.562-1.566-1.555-4.098.008-5.656 1.566-1.562 4.098-1.559 5.656.008l14.668 14.723c1.562 1.566 1.555 4.098-.008 5.656-.781.781-1.804 1.168-2.824 1.168z"/></g><path d="m185.221 252h-96.812c-7.508 0-13.594-6.086-13.594-13.594v-104.812c0-7.508 6.086-13.594 13.594-13.594h96.812c7.508 0 13.594 6.086 13.594 13.594v104.812c0 7.508-6.086 13.594-13.594 13.594z" fill="#9dc1e4"/><path d="m185.221 256h-96.812c-9.703 0-17.594-7.891-17.594-17.594v-104.812c0-9.703 7.891-17.594 17.594-17.594h96.812c9.703 0 17.594 7.891 17.594 17.594v104.812c0 9.703-7.89 17.594-17.594 17.594zm-96.812-132c-5.289 0-9.594 4.305-9.594 9.594v104.812c0 5.289 4.305 9.594 9.594 9.594h96.812c5.289 0 9.594-4.305 9.594-9.594v-104.812c0-5.289-4.305-9.594-9.594-9.594z" fill="#4c241d"/><path d="m178.815 204h-84v-32.303c0-10.878 8.819-19.697 19.697-19.697h44.606c10.878 0 19.697 8.819 19.697 19.697z" fill="#fff"/><path d="m178.815 208h-84c-2.211 0-4-1.789-4-4v-32.305c0-13.066 10.629-23.695 23.695-23.695h44.609c13.066 0 23.695 10.629 23.695 23.695v32.305c.001 2.211-1.788 4-3.999 4zm-80-8h76v-28.305c0-8.656-7.039-15.695-15.695-15.695h-44.609c-8.656 0-15.695 7.039-15.695 15.695v28.305z" fill="#4c241d"/><path d="m146.815 140h-24c-2.211 0-4-1.789-4-4s1.789-4 4-4h24c2.211 0 4 1.789 4 4s-1.789 4-4 4z" fill="#4c241d"/><path d="m172.815 268c-5.523 0-10-4.477-10-10v-6h20v6c0 5.523-4.477 10-10 10z" fill="#b5a19c"/><path d="m172.815 272c-7.719 0-14-6.281-14-14v-6c0-2.211 1.789-4 4-4h20c2.211 0 4 1.789 4 4v6c0 7.719-6.281 14-14 14zm-6-16v2c0 3.309 2.691 6 6 6s6-2.691 6-6v-2z" fill="#4c241d"/><path d="m100.815 268c-5.523 0-10-4.477-10-10v-6h20v6c0 5.523-4.477 10-10 10z" fill="#b5a19c"/><path d="m100.815 272c-7.719 0-14-6.281-14-14v-6c0-2.211 1.789-4 4-4h20c2.211 0 4 1.789 4 4v6c0 7.719-6.281 14-14 14zm-6-16v2c0 3.309 2.691 6 6 6s6-2.691 6-6v-2z" fill="#4c241d"/><path d="m142.815 232h-12c-2.211 0-4-1.789-4-4s1.789-4 4-4h12c2.211 0 4 1.789 4 4s-1.789 4-4 4z" fill="#4c241d"/><path d="m178.815 236h-8c-4.418 0-8-3.582-8-8 0-4.418 3.582-8 8-8h8c4.418 0 8 3.582 8 8 0 4.418-3.581 8-8 8z" fill="#fc8c29"/><path d="m178.815 240h-8c-6.617 0-12-5.383-12-12s5.383-12 12-12h8c6.617 0 12 5.383 12 12s-5.383 12-12 12zm-8-16c-2.207 0-4 1.793-4 4s1.793 4 4 4h8c2.207 0 4-1.793 4-4s-1.793-4-4-4z" fill="#4c241d"/><path d="m102.815 236h-8c-4.418 0-8-3.582-8-8 0-4.418 3.582-8 8-8h8c4.418 0 8 3.582 8 8 0 4.418-3.581 8-8 8z" fill="#fc8c29"/><path d="m102.815 240h-8c-6.617 0-12-5.383-12-12s5.383-12 12-12h8c6.617 0 12 5.383 12 12s-5.383 12-12 12zm-8-16c-2.207 0-4 1.793-4 4s1.793 4 4 4h8c2.207 0 4-1.793 4-4s-1.793-4-4-4z" fill="#4c241d"/><path d="m206.815 188h-8v-20h28c0 11.046-8.954 20-20 20z" fill="#c1dbdc"/><path d="m206.815 192h-8c-2.211 0-4-1.789-4-4v-20c0-2.211 1.789-4 4-4h28c2.211 0 4 1.789 4 4 0 13.234-10.765 24-24 24zm-4-8h4c7.441 0 13.715-5.105 15.492-12h-19.492z" fill="#4c241d"/><path d="m66.815 188h8v-20h-28c0 11.046 8.955 20 20 20z" fill="#c1dbdc"/><path d="m74.815 192h-8c-13.234 0-24-10.766-24-24 0-2.211 1.789-4 4-4h28c2.211 0 4 1.789 4 4v20c0 2.211-1.789 4-4 4zm-23.492-20c1.777 6.895 8.051 12 15.492 12h4v-12z" fill="#4c241d"/><circle cx="152.815" cy="174" fill="#b5a19c" r="7.208"/><path d="m152.815 185.207c-6.18 0-11.207-5.027-11.207-11.207s5.027-11.207 11.207-11.207 11.207 5.027 11.207 11.207-5.027 11.207-11.207 11.207zm0-14.414c-1.77 0-3.207 1.438-3.207 3.207s1.438 3.207 3.207 3.207 3.207-1.438 3.207-3.207-1.437-3.207-3.207-3.207z" fill="#4c241d"/><path d="m166.815 204h-28v-2c0-7.732 6.268-14 14-14 7.732 0 14 6.268 14 14z" fill="#b5a19c"/><path d="m166.815 208h-28c-2.211 0-4-1.789-4-4v-2c0-9.926 8.074-18 18-18s18 8.074 18 18v2c0 2.211-1.789 4-4 4zm-23.801-8h19.602c-.93-4.559-4.973-8-9.801-8s-8.871 3.441-9.801 8z" fill="#4c241d"/></svg>