<svg id="ski_x5F_tram" enable-background="new 0 0 300 300" height="512" viewBox="0 0 300 300" width="512" xmlns="http://www.w3.org/2000/svg"><circle cx="139.981" cy="156" fill="#edebdc" r="92"/><path d="m229.913 177.119-4.682-7.23c-3.993-6.166-10.838-9.889-18.184-9.889h-110.133c-7.346 0-14.191 3.723-18.184 9.889l-4.682 7.23c-3.96 6.117-6.068 13.248-6.068 20.535v6.253h168v-6.253c.001-7.287-2.106-14.418-6.067-20.535z" fill="#9dc1e4"/><path d="m235.981 207.906h-168c-2.211 0-4-1.791-4-4v-6.252c0-8.078 2.32-15.932 6.707-22.709l4.688-7.23c4.746-7.336 12.8-11.715 21.539-11.715h110.133c8.738 0 16.793 4.379 21.543 11.715l4.68 7.23h.004c4.387 6.777 6.707 14.631 6.707 22.709v6.252c-.001 2.209-1.79 4-4.001 4zm-164-8h160v-2.252c0-6.531-1.875-12.881-5.426-18.361l-4.68-7.23c-3.27-5.049-8.812-8.062-14.828-8.062h-110.132c-6.016 0-11.559 3.014-14.824 8.062l-4.688 7.23c-3.547 5.48-5.422 11.83-5.422 18.361z" fill="#4c241d"/><path d="m67.981 203.907h168v28h-168z" fill="#e5efef"/><path d="m235.981 235.906h-168c-2.211 0-4-1.791-4-4v-28c0-2.209 1.789-4 4-4h168c2.211 0 4 1.791 4 4v28c0 2.209-1.789 4-4 4zm-164-8h160v-20h-160z" fill="#4c241d"/><path d="m67.981 231.907v10.359c0 7.585 6.149 13.734 13.734 13.734h140.531c7.585 0 13.734-6.149 13.734-13.734v-10.359z" fill="#c1dbdc"/><path d="m222.247 260h-140.531c-9.777 0-17.734-7.955-17.734-17.734v-10.359c0-2.209 1.789-4 4-4h168c2.211 0 4 1.791 4 4v10.359c-.001 9.779-7.958 17.734-17.735 17.734zm-150.266-24.094v6.359c0 5.367 4.367 9.734 9.734 9.734h140.531c5.367 0 9.734-4.367 9.734-9.734v-6.359z" fill="#4c241d"/><path d="m36.016 139c-1.848 0-3.508-1.287-3.91-3.166-.457-2.162.922-4.285 3.082-4.746l223.836-47.674c2.141-.473 4.281.916 4.746 3.078.457 2.162-.922 4.285-3.082 4.746l-223.836 47.674c-.281.061-.558.088-.836.088z" fill="#4c241d"/><path d="m152.399 163.211c-2.191 0-3.98-1.766-4-3.961l-.457-47.225c-.02-2.209 1.754-4.018 3.961-4.039h.039c2.191 0 3.98 1.766 4 3.961l.457 47.225c.02 2.209-1.754 4.018-3.961 4.039-.012 0-.027 0-.039 0z" fill="#4c241d"/><path d="m171.981 256h-40v-48c0-11.046 8.954-20 20-20 11.046 0 20 8.954 20 20z" fill="#fff"/><path d="m171.981 260h-40c-2.211 0-4-1.791-4-4v-48c0-13.234 10.766-24 24-24s24 10.766 24 24v48c0 2.209-1.789 4-4 4zm-36-8h32v-44c0-8.822-7.176-16-16-16s-16 7.178-16 16z" fill="#4c241d"/><path d="m183.981 160v12c0 6.627 5.373 12 12 12v20c0 4.418 3.582 8 8 8 4.418 0 8-3.582 8-8v-36.815c0-3.968-3.217-7.185-7.185-7.185z" fill="#fff"/><path d="m203.981 216c-6.617 0-12-5.383-12-12v-16.506c-6.895-1.781-12-8.053-12-15.494v-12c0-2.209 1.789-4 4-4h20.816c6.168 0 11.184 5.018 11.184 11.184v36.816c0 6.617-5.383 12-12 12zm-16-52v8c0 4.412 3.59 8 8 8 2.211 0 4 1.791 4 4v20c0 2.205 1.793 4 4 4s4-1.795 4-4v-36.816c0-1.756-1.43-3.184-3.184-3.184z" fill="#4c241d"/><path d="m91.981 167.185v42.245c0 5.231 3.764 9.998 8.969 10.519 5.986.599 11.031-4.086 11.031-9.948v-34c0 4.859 4.332 8.706 9.344 7.89 3.933-.64 6.656-4.334 6.656-8.319v-15.572h-28.815c-3.968 0-7.185 3.217-7.185 7.185z" fill="#fff"/><g fill="#4c241d"><path d="m101.95 224c-.465 0-.93-.023-1.398-.07-7.051-.707-12.57-7.076-12.57-14.5v-42.246c0-6.166 5.016-11.184 11.184-11.184h28.816c2.211 0 4 1.791 4 4v15.572c0 6.062-4.305 11.336-10.012 12.266-2.047.33-4.098.141-5.988-.525v22.687c0 3.947-1.68 7.73-4.609 10.381-2.579 2.336-5.95 3.619-9.423 3.619zm-2.785-60c-1.754 0-3.184 1.428-3.184 3.184v42.246c0 3.365 2.359 6.238 5.367 6.539 1.703.172 3.383-.365 4.656-1.518 1.273-1.154 1.977-2.734 1.977-4.451v-34c0-2.209 1.789-4 4-4s4 1.791 4 4c0 1.176.516 2.287 1.41 3.051.91.775 2.09 1.09 3.289.893 1.852-.303 3.301-2.223 3.301-4.371v-11.573z"/><path d="m167.981 228h-8c-2.211 0-4-1.791-4-4s1.789-4 4-4h8c2.211 0 4 1.791 4 4s-1.789 4-4 4z"/><path d="m53.149 174.197c-1.016 0-2.031-.383-2.809-1.152l-11.39-11.238c-1.574-1.553-1.59-4.084-.039-5.656 1.551-1.574 4.09-1.59 5.656-.039l11.391 11.238c1.574 1.553 1.59 4.084.039 5.656-.781.793-1.817 1.191-2.848 1.191z"/><path d="m41.837 174.271c-1.016 0-2.031-.385-2.809-1.152-1.574-1.553-1.59-4.086-.039-5.658l11.238-11.387c1.559-1.574 4.09-1.584 5.656-.037 1.574 1.553 1.59 4.086.039 5.658l-11.238 11.387c-.785.793-1.816 1.189-2.847 1.189z"/><path d="m185.149 86.197c-1.016 0-2.031-.383-2.809-1.152l-11.39-11.238c-1.574-1.553-1.59-4.084-.039-5.656 1.551-1.574 4.09-1.59 5.656-.039l11.391 11.238c1.574 1.553 1.59 4.084.039 5.656-.781.793-1.817 1.191-2.848 1.191z"/><path d="m173.837 86.271c-1.016 0-2.031-.385-2.809-1.152-1.574-1.553-1.59-4.086-.039-5.658l11.238-11.387c1.559-1.574 4.09-1.584 5.656-.037 1.574 1.553 1.59 4.086.039 5.658l-11.238 11.387c-.785.793-1.816 1.189-2.847 1.189z"/><path d="m51.981 92c-6.578 0-11.953-5.33-12-11.92-.039-6.619 5.305-12.035 11.918-12.08 6.465.078 12.035 5.303 12.082 11.92v.002c.039 6.617-5.305 12.033-11.918 12.078-.027 0-.055 0-.082 0zm0-16c-.012 0-.02 0-.027 0-2.203.014-3.988 1.822-3.973 4.027.016 2.195 1.809 3.973 4 3.973h.027c2.203-.014 3.988-1.822 3.973-4.027-.015-2.198-1.808-3.973-4-3.973z"/><path d="m255.981 164c-6.578 0-11.953-5.33-12-11.92-.039-6.619 5.305-12.035 11.918-12.08h.082c6.578 0 11.953 5.33 12 11.92v.002c.039 6.617-5.305 12.033-11.918 12.078-.027 0-.055 0-.082 0zm0-16c-.012 0-.02 0-.027 0-2.203.014-3.988 1.822-3.973 4.027.016 2.195 1.809 3.973 4 3.973h.027c2.203-.014 3.988-1.822 3.973-4.027-.015-2.198-1.808-3.973-4-3.973z"/><path d="m235.981 64c-6.578 0-11.953-5.33-12-11.92-.039-6.619 5.305-12.035 11.918-12.08h.082c6.578 0 11.953 5.33 12 11.92v.002c.039 6.617-5.305 12.033-11.918 12.078-.027 0-.055 0-.082 0zm0-16c-.012 0-.02 0-.027 0-2.203.014-3.988 1.822-3.973 4.027.016 2.195 1.809 3.973 4 3.973h.027c2.203-.014 3.988-1.822 3.973-4.027-.015-2.198-1.808-3.973-4-3.973z"/><circle cx="95.53" cy="99.599" r="4.292"/><circle cx="203.53" cy="127.599" r="4.292"/><circle cx="95.53" cy="47.599" r="4.292"/><circle cx="263.53" cy="215.599" r="4.292"/><circle cx="43.53" cy="223.599" r="4.292"/></g></svg>