<svg fill="#fff" id="Map_2" enable-background="new 0 0 300 300" height="512" viewBox="0 0 300 300" width="512" xmlns="http://www.w3.org/2000/svg"><g><path d="m246.759 57.021c-2.002-1.093-4.443-1.013-6.363.208l-59.146 37.633-59.146-37.634c-2.045-1.306-4.663-1.306-6.708 0l-62.5 39.771c-1.803 1.147-2.896 3.137-2.896 5.273v135.229c0 2.283 1.242 4.382 3.241 5.481 2.002 1.093 4.44 1.013 6.363-.208l59.146-37.634 59.146 37.634c1.022.653 2.188.977 3.354.977s2.332-.323 3.354-.977l62.5-39.771c1.804-1.147 2.896-3.137 2.896-5.273v-135.228c0-2.283-1.242-4.383-3.241-5.481zm-121.759 16.867 50 31.815v120.412l-50-31.815zm-62.5 31.814 50-31.814v120.413l-50 31.818zm175 88.599-50 31.814v-120.413l50-31.818z"/></g></svg>