<svg id="snowy_x5F_mountains" enable-background="new 0 0 300 300" height="512" viewBox="0 0 300 300" width="512" xmlns="http://www.w3.org/2000/svg"><circle cx="180.945" cy="118.57" fill="#edebdc" r="92"/><path d="m224.207 216.25 14.575-11.661-29.37-64.248-34.082 79.525 32.581-14.481z" fill="#fff"/><path d="m175.332 223.865c-1.031 0-2.047-.398-2.811-1.152-1.172-1.156-1.516-2.91-.867-4.424l34.082-79.523c.623-1.455 2.045-2.404 3.629-2.424 1.613.066 3.027.898 3.686 2.338l29.371 64.248c.762 1.668.293 3.641-1.141 4.785l-14.576 11.66c-1.359 1.09-3.27 1.17-4.717.205l-14.465-9.645-30.568 13.586c-.523.233-1.076.346-1.623.346zm34.197-73.644-26.506 61.848 23.262-10.338c1.254-.559 2.701-.436 3.844.326l13.863 9.242 9.855-7.883z" fill="#4c241d"/><path d="m268.945 270.57-30.163-65.981-14.575 11.66-16.296-10.864-32.581 14.48-21.73 50.705c-1.191 0 115.345 0 115.345 0z" fill="#9dc1e4"/><path d="m268.945 274.57h-115.355c-2.209 0-4-1.791-4-4 0-.656.158-1.275.438-1.822l21.627-50.459c.396-.926 1.129-1.67 2.051-2.078l32.58-14.48c1.254-.559 2.701-.436 3.844.326l13.863 9.242 12.293-9.832c.961-.771 2.225-1.059 3.424-.768 1.199.285 2.199 1.107 2.713 2.229l30.162 65.98c.564 1.238.463 2.678-.273 3.824-.738 1.145-2.005 1.838-3.367 1.838zm-109.279-8h103.053l-25.441-55.654-10.572 8.457c-1.359 1.09-3.27 1.17-4.717.205l-14.465-9.645-29.135 12.949z" fill="#4c241d"/><path d="m213.343 270.57-55.818-122.102-9.367 8.029-16.296-16.296-16.296 16.296-17.284-10.37-53.333 124.443c-1.739 0 168.394 0 168.394 0z" fill="#c1dbdc"/><path d="m213.344 274.57h-168.408c-2.209 0-4-1.791-4-4 0-.674.168-1.309.461-1.867l53.209-124.152c.455-1.061 1.346-1.875 2.445-2.23 1.1-.35 2.295-.217 3.289.377l14.605 8.762 14.088-14.086c1.562-1.562 4.094-1.562 5.656 0l13.678 13.676 6.555-5.617c.955-.816 2.24-1.131 3.463-.869 1.229.27 2.256 1.102 2.779 2.244l55.818 122.102c.564 1.238.463 2.678-.273 3.824-.736 1.143-2.004 1.836-3.365 1.836zm-162.328-8h156.102l-51.021-111.609-5.334 4.572c-1.584 1.359-3.953 1.27-5.432-.209l-13.469-13.467-13.467 13.467c-1.297 1.297-3.309 1.551-4.887.602l-13.355-8.012z" fill="#4c241d"/><path d="m131.862 140.201 16.296 16.296 9.367-8.029-31.095-68.02-28.148 65.678 17.284 10.371z" fill="#fff"/><path d="m115.564 160.496c-.705 0-1.418-.188-2.057-.57l-17.285-10.369c-1.715-1.029-2.406-3.166-1.617-5.006l28.148-65.68c.623-1.455 2.045-2.404 3.629-2.424 1.643.115 3.027.898 3.686 2.338l31.096 68.021c.74 1.621.318 3.539-1.035 4.699l-9.367 8.027c-1.584 1.359-3.953 1.27-5.432-.209l-13.469-13.467-13.467 13.467c-.771.773-1.794 1.173-2.83 1.173zm-12.23-16.004 11.611 6.967 14.088-14.086c1.562-1.562 4.094-1.562 5.656 0l13.678 13.676 4.268-3.656-26.088-57.066z" fill="#4c241d"/><path d="m249.07 91.293c-.707 0-1.392.088-2.065.204.471-1.717.746-3.514.746-5.377 0-11.427-9.452-20.691-21.112-20.691-10.854 0-19.785 8.031-20.969 18.358-.905-.157-1.831-.254-2.782-.254-8.745 0-15.834 6.948-15.834 15.518s7.089 15.518 15.834 15.518h46.182c6.559 0 11.875-5.211 11.875-11.639s-5.316-11.637-11.875-11.637z" fill="#fff"/><path d="m249.07 118.57h-46.182c-10.936 0-19.834-8.756-19.834-19.518 0-10.613 8.654-19.275 19.383-19.512 2.945-10.553 12.744-18.111 24.201-18.111 13.846 0 25.111 11.076 25.111 24.691 0 .461-.014.924-.043 1.389 7.504 1.24 13.238 7.684 13.238 15.422.001 8.624-7.12 15.639-15.874 15.639zm-46.181-31.035c-6.525 0-11.834 5.166-11.834 11.518s5.309 11.518 11.834 11.518h46.182c4.342 0 7.875-3.426 7.875-7.639s-3.533-7.639-7.875-7.639c-.473 0-.93.068-1.381.146-1.348.234-2.723-.24-3.646-1.252-.922-1.014-1.26-2.43-.896-3.75.4-1.455.604-2.906.604-4.316 0-9.203-7.676-16.691-17.111-16.691-8.721 0-16.027 6.369-16.994 14.814-.127 1.096-.697 2.09-1.58 2.75-.885.658-2.002.932-3.084.734-.682-.119-1.379-.193-2.094-.193z" fill="#4c241d"/><path d="m93.07 55.293c-.707 0-1.392.088-2.065.204.471-1.717.746-3.514.746-5.377 0-11.427-9.452-20.691-21.112-20.691-10.854 0-19.785 8.031-20.969 18.358-.905-.157-1.831-.254-2.782-.254-8.745 0-15.834 6.948-15.834 15.518s7.089 15.519 15.834 15.519h46.182c6.559 0 11.875-5.211 11.875-11.639s-5.316-11.638-11.875-11.638z" fill="#fff"/><path d="m93.07 82.57h-46.181c-10.936 0-19.834-8.756-19.834-19.518 0-10.613 8.654-19.275 19.383-19.512 2.945-10.552 12.744-18.11 24.201-18.11 13.846 0 25.111 11.076 25.111 24.691 0 .461-.014.924-.043 1.389 7.504 1.24 13.238 7.684 13.238 15.422 0 8.623-7.121 15.638-15.875 15.638zm-46.181-31.035c-6.525 0-11.834 5.166-11.834 11.518s5.308 11.517 11.834 11.517h46.181c4.342 0 7.875-3.426 7.875-7.639s-3.533-7.639-7.875-7.639c-.473 0-.93.068-1.381.146-1.352.23-2.725-.238-3.646-1.252s-1.26-2.43-.896-3.75c.4-1.455.604-2.906.604-4.316 0-9.203-7.676-16.691-17.111-16.691-8.721 0-16.027 6.369-16.994 14.814-.127 1.096-.697 2.09-1.58 2.75-.885.66-2.002.93-3.084.734-.681-.118-1.378-.192-2.093-.192z" fill="#4c241d"/><path d="m60.945 234.57v36" fill="#a9ba5a"/><path d="m60.945 274.57c-2.209 0-4-1.791-4-4v-36c0-2.209 1.791-4 4-4s4 1.791 4 4v36c0 2.209-1.791 4-4 4z" fill="#4c241d"/><path d="m68.205 191.187-7.741-24.168-7.007 23.336-13.275 44.215c-.433 0 41.918 0 41.918 0z" fill="#bd53b5"/><g fill="#4c241d"><path d="m82.1 238.57h-41.922c-1.264 0-2.453-.598-3.207-1.613-.754-1.014-.984-2.326-.621-3.537l20.285-67.551c.504-1.678 2.041-2.834 3.793-2.85h.037c1.738 0 3.279 1.123 3.809 2.779l21.635 67.551c.391 1.217.176 2.547-.578 3.578-.753 1.034-1.954 1.643-3.231 1.643zm-36.541-8h31.061l-12.223-38.162-3.809-11.891z"/><path d="m78.602 112.227c-1.023 0-2.047-.391-2.828-1.172l-11.313-11.313c-1.562-1.562-1.562-4.094 0-5.656s4.094-1.562 5.656 0l11.312 11.312c1.562 1.562 1.562 4.094 0 5.656-.781.782-1.804 1.173-2.827 1.173z"/><path d="m67.289 112.227c-1.023 0-2.047-.391-2.828-1.172-1.562-1.562-1.562-4.094 0-5.656l11.312-11.312c1.562-1.562 4.094-1.562 5.656 0s1.562 4.094 0 5.656l-11.312 11.312c-.781.781-1.805 1.172-2.828 1.172z"/><path d="m250.602 152.227c-1.023 0-2.047-.391-2.828-1.172l-11.312-11.312c-1.562-1.562-1.562-4.094 0-5.656s4.094-1.562 5.656 0l11.312 11.312c1.562 1.562 1.562 4.094 0 5.656-.782.781-1.805 1.172-2.828 1.172z"/><path d="m239.289 152.227c-1.023 0-2.047-.391-2.828-1.172-1.562-1.562-1.562-4.094 0-5.656l11.312-11.312c1.562-1.562 4.094-1.562 5.656 0s1.562 4.094 0 5.656l-11.312 11.312c-.781.781-1.805 1.172-2.828 1.172z"/><path d="m40.945 158.57c-6.617 0-12-5.383-12-12s5.383-12 12-12 12 5.383 12 12-5.383 12-12 12zm0-16c-2.205 0-4 1.795-4 4s1.795 4 4 4 4-1.795 4-4-1.795-4-4-4z"/><path d="m160.945 82.57c-6.617 0-12-5.383-12-12s5.383-12 12-12 12 5.383 12 12-5.383 12-12 12zm0-16c-2.205 0-4 1.795-4 4s1.795 4 4 4 4-1.795 4-4-1.795-4-4-4z"/><circle cx="80.945" cy="138.57" r="4.292"/><circle cx="260.945" cy="178.57" r="4.292"/><circle cx="32.945" cy="94.57" r="4.292"/><circle cx="200.945" cy="46.57" r="4.292"/></g></svg>