<svg id="restaurant_x5F_sign" enable-background="new 0 0 300 300" height="512" viewBox="0 0 300 300" width="512" xmlns="http://www.w3.org/2000/svg"><circle cx="160" cy="142.674" fill="#edebdc" r="92"/><g fill="#4c241d"><path d="m254 74.674c-7.719 0-14-6.281-14-14s6.281-14 14-14 14 6.281 14 14-6.281 14-14 14zm0-20c-3.309 0-6 2.691-6 6s2.691 6 6 6 6-2.691 6-6-2.691-6-6-6z"/><path d="m46 202.674c-7.719 0-14-6.281-14-14s6.281-14 14-14 14 6.281 14 14-6.281 14-14 14zm0-20c-3.309 0-6 2.691-6 6s2.691 6 6 6 6-2.691 6-6-2.691-6-6-6z"/><circle cx="258" cy="120.674" r="4.529"/><circle cx="46" cy="124.674" r="4.529"/><circle cx="66" cy="236.674" r="4.529"/><circle cx="254" cy="232.674" r="4.529"/><path d="m236.652 188.021c-1.023 0-2.047-.391-2.828-1.172-1.562-1.562-1.562-4.094 0-5.656l14.695-14.695c1.562-1.562 4.094-1.562 5.656 0s1.562 4.094 0 5.656l-14.695 14.696c-.781.781-1.804 1.171-2.828 1.171z"/><path d="m251.348 188.021c-1.023 0-2.047-.391-2.828-1.172l-14.695-14.695c-1.562-1.562-1.562-4.094 0-5.656s4.094-1.562 5.656 0l14.695 14.695c1.562 1.562 1.562 4.094 0 5.656-.781.782-1.805 1.172-2.828 1.172z"/><path d="m44.652 52.021c-1.023 0-2.047-.391-2.828-1.172-1.562-1.562-1.562-4.094 0-5.656l14.696-14.695c1.562-1.562 4.094-1.562 5.656 0s1.562 4.094 0 5.656l-14.696 14.696c-.781.781-1.804 1.171-2.828 1.171z"/><path d="m59.348 52.021c-1.023 0-2.047-.391-2.828-1.172l-14.696-14.695c-1.562-1.562-1.562-4.094 0-5.656s4.094-1.562 5.656 0l14.695 14.695c1.562 1.562 1.562 4.094 0 5.656-.78.782-1.804 1.172-2.827 1.172z"/><path d="m95 114.674h-7.393c-8.605 0-15.607-7.002-15.607-15.607v-52.393c0-2.209 1.791-4 4-4s4 1.791 4 4v52.393c0 4.195 3.412 7.607 7.607 7.607h7.393c2.209 0 4 1.791 4 4s-1.791 4-4 4z"/><path d="m130.363 114.674h-5.363c-2.209 0-4-1.791-4-4s1.791-4 4-4h5.363c5.314 0 9.637-4.322 9.637-9.637v-50.363c0-2.209 1.791-4 4-4s4 1.791 4 4v50.363c0 9.725-7.912 17.637-17.637 17.637z"/><path d="m120 114.674c-2.209 0-4-1.791-4-4v-64c0-2.209 1.791-4 4-4s4 1.791 4 4v64c0 2.209-1.791 4-4 4z"/><path d="m100 114.674c-2.209 0-4-1.791-4-4v-64c0-2.209 1.791-4 4-4s4 1.791 4 4v64c0 2.209-1.791 4-4 4z"/></g><path d="m208 38.674c-26.447 9.669-45.488 36.749-45.488 68.643 0 18.712 8.415 34.502 19.174 47.357v98.843c0 7.266 5.891 13.157 13.157 13.157 7.266 0 13.157-5.891 13.157-13.157z" fill="#fff"/><path d="m194.844 270.674c-9.461 0-17.158-7.695-17.158-17.156v-97.406c-12.725-15.604-19.174-32.014-19.174-48.795 0-32.783 19.336-61.879 48.115-72.4 1.219-.445 2.594-.27 3.666.48 1.07.748 1.707 1.971 1.707 3.277v214.844c0 9.461-7.695 17.156-17.156 17.156zm9.156-225.979c-22.641 10.857-37.488 35.291-37.488 62.621 0 15.258 6.137 30.328 18.242 44.791.602.719.932 1.627.932 2.566v98.844c0 5.049 4.107 9.156 9.158 9.156 5.049 0 9.156-4.107 9.156-9.156z" fill="#4c241d"/><path d="m81.235 116.723 11.17 12.907c2.319 2.68 3.595 6.105 3.595 9.648v113.318c0 7.774 6.302 14.077 14.077 14.077 7.774 0 14.077-6.302 14.077-14.077v-113.35c0-3.524 1.262-6.932 3.558-9.606l11.106-12.934c3.343-3.893 5.181-8.855 5.181-13.987v-.047h-67.999c0 5.162 1.858 10.149 5.235 14.051z" fill="#9dc1e4"/><path d="m110.076 270.674c-9.967 0-18.076-8.109-18.076-18.076v-113.319c0-2.582-.93-5.08-2.619-7.029l-11.172-12.91c-4.004-4.627-6.209-10.547-6.209-16.666 0-2.209 1.791-4 4-4h68c2.209 0 4 1.791 4 4 0 6.133-2.184 12.025-6.146 16.639l-11.105 12.934c-1.674 1.947-2.594 4.434-2.594 7v113.352c-.001 9.965-8.11 18.075-18.079 18.075zm-25.816-156.569 11.17 12.908c2.947 3.404 4.57 7.76 4.57 12.266v113.318c0 5.557 4.52 10.076 10.076 10.076s10.078-4.52 10.078-10.076v-113.351c0-4.479 1.607-8.816 4.523-12.211l11.105-12.934c1.848-2.15 3.129-4.703 3.764-7.428h-59.081c.64 2.729 1.935 5.284 3.795 7.432z" fill="#4c241d"/></svg>