<svg id="Layer_1" preserveAspectRatio="xMidYMid slice" data-name="Layer 1" xmlns="http://www.w3.org/2000/svg" viewBox="0 0 61.17 57.83"><defs><style>.cls-1{fill:#6d6a69;}</style></defs><title>W17-Shop-Landing-Icons_W16-ShopLanding-Icon-Bindings</title><path class="cls-1" d="M49,41l-1.56-.68a3.45,3.45,0,0,0-4.59,1.49L42,43.6l0,0.1a3.39,3.39,0,0,0,2.15,4.16L44.56,48l-0.76,2c-0.2,0-.39,0-0.59,0H43.16a27.58,27.58,0,0,0-4.32.74c-2.36.51-5.59,1.2-6.54,0.9C31,51.24,25,48.87,21.77,47.59v0l-0.32-.09-0.71-.29L22.92,45l0.16,0.16,0.08,0.08a3.49,3.49,0,0,0,2.45,1h0.05a3.5,3.5,0,0,0,2.47-1.06l6.36-6.36a3.52,3.52,0,0,0-.06-5L33.06,32.5a3.52,3.52,0,0,0-5,.06l-6.36,6.36a3.52,3.52,0,0,0,.06,5l0.28,0.28-2.29,2.29a18.31,18.31,0,0,1-2.22-9.13,52.36,52.36,0,0,1,1.08-10.41c0-.15.88-3.6-0.64-5.58l-0.07-.08c-1-1-3.13-.87-3.47-0.83a1.16,1.16,0,0,0-.85.4,1.65,1.65,0,0,0-.35,1.32,44.76,44.76,0,0,1-.19,5.16,47.41,47.41,0,0,1-2.36,9,0.8,0.8,0,0,0,0,.2c-0.92,9.23-.85,9.38-0.72,9.64s1.11,2.12,1.11,2.12a0.81,0.81,0,0,0,.28.3c0.06,0,5.6,3.57,6.34,8.34a0.8,0.8,0,0,0,.79.68h28.3a1.09,1.09,0,0,0,1.18-.83c0.27-1,.63-2.29.73-2.52a0.8,0.8,0,0,0,0-.68,6,6,0,0,0-3.7-3.3l0.67-1.78h0a3.38,3.38,0,0,0,1.54.37,3.44,3.44,0,0,0,3-1.8l0-.05,0.8-1.8,0-.1A3.39,3.39,0,0,0,49,41ZM22.93,40l6.31-6.31a1.88,1.88,0,0,1,1.36-.57,2,2,0,0,1,1.4.58L33.3,35a1.94,1.94,0,0,1,0,2.76L27,44.06h0a1.9,1.9,0,0,1-1.35.58,1.81,1.81,0,0,1-1.41-.59l-1.31-1.31A1.94,1.94,0,0,1,22.93,40ZM14.66,27.51a45.77,45.77,0,0,0,.2-5.47v0a3.56,3.56,0,0,1,1.91.36c0.82,1.15.51,3.39,0.32,4.2A53.89,53.89,0,0,0,16,37.31a19.88,19.88,0,0,0,2,9.18,58.19,58.19,0,0,0-6.5-1.55c0.12-1.69.49-5.54,0.75-8.13A49,49,0,0,0,14.66,27.51ZM47.09,54c-0.19.55-.43,1.44-0.6,2.06H19.12c-1.09-4.67-5.74-8-6.75-8.66L12,46.64c1.25,0.25,3.8.87,9,2.35,3.14,1.25,9.43,3.75,10.87,4.21,1.26,0.4,3.84-.11,7.36-0.86a28.45,28.45,0,0,1,4-.7h0A4.38,4.38,0,0,1,47.09,54Zm2.52-9.31-0.76,1.72a1.84,1.84,0,0,1-2.46.72l-1.68-.73a1.8,1.8,0,0,1-1.19-2.17l0.75-1.69a1.84,1.84,0,0,1,2.47-.74l1.68,0.73A1.8,1.8,0,0,1,49.61,44.66Z"/></svg>