<svg id="Layer_1" preserveAspectRatio="xMidYMid slice" data-name="Layer 1" xmlns="http://www.w3.org/2000/svg" viewBox="0 0 61.17 57.83"><defs><style>.cls-1,.cls-2{fill:none;stroke:#6d6a69;stroke-linejoin:round;}.cls-1{stroke-width:1.6px;}.cls-2{stroke-linecap:round;stroke-width:1.2px;}</style></defs><title>W17-Shop-Landing-Icons</title><path class="cls-1" d="M16.11,56.33h0c-0.5-.1-1.3-0.2-1.5-4.4-0.3-1.5.7-30.7,1.4-32.2a1.4,1.4,0,0,1,1.1-.9,119.46,119.46,0,0,1,13.6,1.4c3.9,1.1,3.1,3,3.1,3l-2.7,18.1s4.2,2.7,5.3,2.7c9.8,0,9.8,5.4,10.2,6.4v3.7c-0.1.5,0.2,2-7.9,2.6-1.2.1-3.1,0.1-5.4,0.1C26.11,56.83,16.31,56.33,16.11,56.33Z"/><path class="cls-1" d="M46.61,50.93c0,0.5-.6,2-8.6,2.5-1.2.1-3.1,0.1-5.4,0.1-7.2,0-17-.5-17.2-0.5h-0.1"/><line class="cls-2" x1="29.01" y1="24.63" x2="32.81" y2="25.03"/><line class="cls-2" x1="28.61" y1="28.23" x2="32.41" y2="28.63"/><line class="cls-2" x1="28.01" y1="31.93" x2="31.81" y2="32.33"/><line class="cls-2" x1="27.61" y1="35.53" x2="31.41" y2="35.93"/><line class="cls-2" x1="27.41" y1="39.23" x2="31.21" y2="39.53"/><line class="cls-2" x1="31.41" y1="44.63" x2="32.51" y2="43.03"/><line class="cls-2" x1="34.21" y1="46.03" x2="35.21" y2="44.43"/><path class="cls-2" d="M15.21,29.23s3.7-3,5.6-10.2"/><path class="cls-2" d="M14.71,43.13s5.9,4.1,5.7,10.2"/></svg>