<svg id="Layer_1" data-name="Layer 1" xmlns="http://www.w3.org/2000/svg" viewBox="0 0 61.17 57.83"><defs><style>.cls-1,.cls-2{fill:none;stroke:#6d6a69;stroke-linecap:round;stroke-linejoin:round;}.cls-1{stroke-width:1.6px;}.cls-2{stroke-width:1.2px;}</style></defs><title>W17-Shop-Landing-Icons</title><path class="cls-1" d="M26.51,46.33c-1.1,0-2,2-2,2l-2.3,6.5a2,2,0,0,0,2,2h17.2a2,2,0,0,0,2-2l-2.2-6.5s-0.9-2-2-2"/><path class="cls-1" d="M43.41,23.63a10.2,10.2,0,0,0-20.4,0c0,0.5,1.1,20.6,1.1,20.6a2,2,0,0,0,2,2h14.1a2,2,0,0,0,2-2S43.41,24.13,43.41,23.63Z"/><path class="cls-1" d="M43.31,30.43a2.47,2.47,0,0,1,3.4-.9l2.1,1.2a2.47,2.47,0,0,1,.9,3.4L42.31,45"/><line class="cls-2" x1="33.21" y1="48.53" x2="33.21" y2="44.03"/><line class="cls-2" x1="28.71" y1="48.03" x2="28.71" y2="44.63"/><line class="cls-2" x1="37.71" y1="48.03" x2="37.71" y2="44.63"/><path class="cls-1" d="M15.31,40.63c-1.1,0-2,2-2,2l-2.2,6.5a2,2,0,0,0,2,2h10"/><path class="cls-1" d="M30.61,12.63A10.23,10.23,0,0,0,11.71,18c0,0.5,1.1,20.6,1.1,20.6a2,2,0,0,0,2,2h9.1"/><line class="cls-2" x1="21.91" y1="42.93" x2="21.91" y2="38.43"/><line class="cls-2" x1="17.41" y1="42.33" x2="17.41" y2="39.03"/><path class="cls-2" d="M37.71,25.93a2.48,2.48,0,0,1-2.5,2.5h-4.1a2.48,2.48,0,0,1-2.5-2.5h0a2.48,2.48,0,0,1,2.5-2.5h4.1a2.54,2.54,0,0,1,2.5,2.5h0Z"/></svg>