<svg id="Layer_1" preserveAspectRatio="xMidYMid slice" data-name="Layer 1" xmlns="http://www.w3.org/2000/svg" viewBox="0 0 61.17 57.83"><defs><style>.cls-1{fill:#6d6a69;}</style></defs><title>W17-Shop-Landing-Icons</title><path class="cls-1" d="M40.6,57.83h-20c-0.9,0-2.8-.3-2.8-3.5L18,41.63l-2.4,10.8c-0.6,2.4-2,2.7-2.8,2.7A2.49,2.49,0,0,1,12,55l-5.1-.7a2.6,2.6,0,0,1-2.1-1.6,4.5,4.5,0,0,1,0-2l6.5-29.1v-0.1c1.3-3,6.9-5.2,9.3-5.9A14.1,14.1,0,0,1,22.8,9a9.09,9.09,0,0,1,7.7-3.9,9.21,9.21,0,0,1,8,4,12.45,12.45,0,0,1,2.1,6.5c2.3,0.7,7.8,2.9,9.1,5.8l0.1,0.2,6.5,29.1a2.76,2.76,0,0,1,0,2,2.43,2.43,0,0,1-2,1.6l-5.3.8c-0.2,0-.4.1-0.7,0.1-0.8,0-2.2-.3-2.7-2.7l-2.4-10.8,0.2,12.7C43.5,57.53,41.5,57.83,40.6,57.83ZM18.8,32.93h0a0.86,0.86,0,0,1,.8.8l-0.3,20.6c0,1.8.9,1.8,1.2,1.8H40.6c0.4,0,1.2,0,1.2-1.9l-0.3-20.6a0.77,0.77,0,0,1,.7-0.8,0.87,0.87,0,0,1,.9.6l4.1,18.7c0.3,1.4.9,1.4,1.2,1.4h0.4l5.3-.8a0.85,0.85,0,0,0,.8-0.5,2.29,2.29,0,0,0-.1-1.1L48.3,22c-0.9-2.2-6.1-4.4-8.5-5a1,1,0,0,1-.5-0.4,0.9,0.9,0,0,1-.1-0.5,11,11,0,0,0-2.6-6.9,7.83,7.83,0,0,0-6-2.4A7.38,7.38,0,0,0,25,9.13a10.78,10.78,0,0,0-2.6,7,0.75,0.75,0,0,1-.1.5,1,1,0,0,1-.5.4c-2.5.6-7.7,2.8-8.7,5.1L6.4,51a2.33,2.33,0,0,0-.1,1.1,1.06,1.06,0,0,0,.9.5l5.1,0.7c0.2,0,.3.1,0.5,0.1s0.9,0,1.2-1.4l4.1-18.5A0.75,0.75,0,0,1,18.8,32.93Z"/><path class="cls-1" d="M23.7,25.63h0a0.73,0.73,0,0,1-.6-0.7l0.8-5.6a0.61,0.61,0,0,1,1.2.2l-0.8,5.6A0.63,0.63,0,0,1,23.7,25.63Z"/><path class="cls-1" d="M37.3,25.63a0.63,0.63,0,0,1-.6-0.5l-0.8-5.6a0.75,0.75,0,0,1,.5-0.7,0.64,0.64,0,0,1,.7.5l0.8,5.6a0.73,0.73,0,0,1-.6.7h0Z"/><path class="cls-1" d="M31.1,26.33a0.5,0.5,0,1,1-.5-0.5,0.47,0.47,0,0,1,.5.5"/><path class="cls-1" d="M30.6,27a0.7,0.7,0,1,1,.7-0.7A0.68,0.68,0,0,1,30.6,27Zm0-1a0.3,0.3,0,1,0,.3.3A0.32,0.32,0,0,0,30.6,26Z"/><path class="cls-1" d="M31.1,19.43a0.5,0.5,0,1,1-.5-0.5,0.47,0.47,0,0,1,.5.5"/><path class="cls-1" d="M30.6,20.13a0.7,0.7,0,1,1,.7-0.7A0.68,0.68,0,0,1,30.6,20.13Zm0-1a0.3,0.3,0,1,0,.3.3A0.32,0.32,0,0,0,30.6,19.13Z"/><path class="cls-1" d="M31.1,33.13a0.5,0.5,0,1,1-.5-0.5,0.54,0.54,0,0,1,.5.5"/><path class="cls-1" d="M30.6,33.93a0.7,0.7,0,1,1,.7-0.7A0.75,0.75,0,0,1,30.6,33.93Zm0-1.1a0.3,0.3,0,1,0,.3.3A0.32,0.32,0,0,0,30.6,32.83Z"/><path class="cls-1" d="M31.1,40a0.5,0.5,0,1,1-.5-0.5,0.47,0.47,0,0,1,.5.5"/><path class="cls-1" d="M30.6,40.73a0.7,0.7,0,1,1,.7-0.7A0.68,0.68,0,0,1,30.6,40.73Zm0-1a0.3,0.3,0,1,0,.3.3A0.32,0.32,0,0,0,30.6,39.73Z"/><path class="cls-1" d="M31.1,46.93a0.5,0.5,0,1,1-.5-0.5,0.47,0.47,0,0,1,.5.5"/><path class="cls-1" d="M30.6,47.63a0.7,0.7,0,1,1,.7-0.7A0.68,0.68,0,0,1,30.6,47.63Zm0-1a0.3,0.3,0,1,0,.3.3A0.32,0.32,0,0,0,30.6,46.63Z"/><path class="cls-1" d="M31.1,53.83a0.5,0.5,0,1,1-.5-0.5,0.47,0.47,0,0,1,.5.5"/><path class="cls-1" d="M30.6,54.53a0.7,0.7,0,1,1,.7-0.7A0.68,0.68,0,0,1,30.6,54.53Zm0-1a0.3,0.3,0,1,0,.3.3A0.32,0.32,0,0,0,30.6,53.53Z"/><rect class="cls-1" x="27.6" y="16.73" width="1.2" height="39.5"/><rect class="cls-1" x="32.4" y="16.73" width="1.2" height="39.5"/><path class="cls-1" d="M36.3,16.93H24.9a0.89,0.89,0,0,1-.8-1A8.27,8.27,0,0,1,25.2,12a5.84,5.84,0,0,1,5.3-3,6.15,6.15,0,0,1,5.3,2.6,7.57,7.57,0,0,1,1.3,4.9A1,1,0,0,1,36.3,16.93Zm-10.6-1.6h9.8a6.53,6.53,0,0,0-1.5-3.5,4.67,4.67,0,0,0-3.5-1.4,4.22,4.22,0,0,0-3.3,1.4A6.53,6.53,0,0,0,25.7,15.33Z"/><path class="cls-1" d="M24.5,52.43H19v-1.2h4.9v-8.8H19.3v-1.2h5.2a0.65,0.65,0,0,1,.6.6v10A0.65,0.65,0,0,1,24.5,52.43Z"/><path class="cls-1" d="M42.2,52.43H36.7a0.65,0.65,0,0,1-.6-0.6v-10a0.65,0.65,0,0,1,.6-0.6h5.2v1.2H37.3v8.8h4.9v1.2h0Z"/><rect class="cls-1" x="18.9" y="44.23" width="5.9" height="1.2"/><rect class="cls-1" x="36.5" y="44.23" width="5.9" height="1.2"/></svg>