<svg id="Layer_1" preserveAspectRatio="xMidYMid slice"  data-name="Layer 1" xmlns="http://www.w3.org/2000/svg" viewBox="0 0 61.17 57.83"><defs><style>.cls-1,.cls-2,.cls-4{fill:none;stroke:#6d6a69;stroke-linejoin:round;}.cls-1{stroke-width:1.6px;}.cls-2{stroke-linecap:round;}.cls-2,.cls-4{stroke-width:1.2px;}.cls-3{fill:#6d6a69;}</style></defs><title>W17-Shop-Landing-Icons</title><path class="cls-1" d="M39.91,56.83c-6,0-5.4-.3-5.7-0.5s0-11.7-1.7-25.6c-0.5-4.3-1.3-6.9-2.2-13-0.8,6-1.4,8.7-1.9,13A241.17,241.17,0,0,0,27,56c-0.2.6,0.6,0.8-6,.8-5.7,0-5-.2-5.2-0.6-0.3-.6.8-16,0.7-24.9s0.4-24,1-25.5a1.3,1.3,0,0,1,.5-0.7c0.9-.4,2.1-0.6,8.4-0.6h8.1c7.8,0,8,.2,8.6.6s1.3,15,1.3,25.5,1.1,24.9,1,25.2C45.21,56.63,46,56.83,39.91,56.83Z"/><line class="cls-2" x1="30.21" y1="13.73" x2="30.21" y2="4.53"/><path class="cls-3" d="M17.44,9.6l-0.34-.66s-0.68-.51-0.33-0.72C18.89,7,26.32,6.83,26.41,6.83h8.1c7.85,0,8.8.8,9.56,1.44l-1,1.27c-0.5-.42-1.32-1.12-8.59-1.12h-8.1C20.18,8.43,17.46,9.59,17.44,9.6Z"/><polyline class="cls-4" points="16.71 30.73 24.01 30.73 23.21 42.63 16.11 42.63"/><polyline class="cls-4" points="44.31 30.73 36.91 30.73 37.71 42.63 44.81 42.63"/><line class="cls-2" x1="17.21" y1="16.13" x2="22.11" y2="11.13"/><line class="cls-2" x1="43.51" y1="16.13" x2="38.61" y2="11.13"/></svg>