<?xml version="1.0" encoding="utf-8"?>
<!-- Generator: Adobe Illustrator 23.1.1, SVG Export Plug-In . SVG Version: 6.00 Build 0)  -->
<svg version="1.1" id="圖層_1" xmlns="http://www.w3.org/2000/svg" xmlns:xlink="http://www.w3.org/1999/xlink" x="0px" y="0px"
	 viewBox="0 0 82 20.7" style="enable-background:new 0 0 82 20.7;" xml:space="preserve">
<style type="text/css">
	.st0{fill:#FFFFFF;}
</style>
<g>
	<path class="st0" d="M10.8,15.2c0.2-0.8,0.1-1.4-0.4-1.8C10,13,9.1,12.6,7.8,12c-2.3-0.8-4-1.7-5.1-2.8s-1.4-2.4-1-4
		c0.4-1.6,1.4-2.9,2.9-3.8C6.2,0.5,8.1,0,10.1,0c2.3,0,4,0.6,5.2,1.6c1.2,1.1,1.5,2.6,1,4.5l0,0.1l-4.5,0c0.2-0.8,0-1.4-0.4-1.9
		c-0.5-0.5-1.2-0.7-2.1-0.7C8.6,3.5,8,3.7,7.4,4c-0.6,0.3-0.9,0.7-1,1.2C6.2,6,6.4,6.5,6.9,6.9C7.3,7.2,8.4,7.7,10,8.3
		c2.1,0.7,3.6,1.6,4.6,2.7c1,1.1,1.2,2.5,0.8,4.2c-0.4,1.7-1.4,3-2.9,3.9C11,20,9.1,20.4,7,20.4c-2.2,0-4-0.5-5.4-1.5
		c-1.4-1-1.9-2.5-1.3-4.6l0-0.1l4.5,0c-0.2,1,0,1.7,0.6,2c0.7,0.4,1.5,0.6,2.5,0.6c0.7,0,1.3-0.2,1.9-0.5
		C10.3,16.1,10.7,15.7,10.8,15.2z"/>
	<path class="st0" d="M24.6,12.3l-1.3,0l-1.9,7.9l-4.6,0l4.8-19.9l4.6,0l-1.9,7.9l1.2,0L31,0.4l6.1,0L29,10.2l3.6,10.1l-5.3,0
		L24.6,12.3z"/>
	<path class="st0" d="M39.4,20.3l-4.6,0l4.8-19.9l4.6,0L39.4,20.3z"/>
	<path class="st0" d="M59.8,17.6c-0.9,0.8-2,1.5-3.4,2.1c-1.4,0.6-3.1,0.9-5.1,0.9c-2.4,0-4.2-0.8-5.4-2.3c-1.2-1.5-1.6-3.5-1-5.9
		l1-4.1c0.6-2.5,1.8-4.5,3.7-5.9s4-2.2,6.4-2.2c2.4,0,4.2,0.6,5.3,1.7c1.1,1.2,1.4,2.7,0.8,4.6l0,0.1l-4.4,0c0.2-1,0.2-1.7-0.2-2.2
		C57,4,56.2,3.7,55.2,3.7c-1,0-2,0.4-2.9,1.3c-0.9,0.9-1.5,1.9-1.8,3.3l-1,4.2c-0.4,1.4-0.3,2.6,0.2,3.4c0.5,0.8,1.3,1.2,2.5,1.2
		c0.8,0,1.5-0.1,2-0.2c0.5-0.1,1-0.3,1.3-0.5l0.9-3.5l-3.5,0l0.7-3.1l8.2,0L59.8,17.6z"/>
	<path class="st0" d="M80.9,12.3c-0.6,2.5-1.9,4.6-3.8,6.1c-1.9,1.5-4.1,2.3-6.7,2.3c-2.4,0-4.3-0.8-5.5-2.4c-1.2-1.6-1.6-3.6-1-6
		l0.9-3.6c0.6-2.5,1.9-4.6,3.8-6.1c1.9-1.5,4.2-2.3,6.7-2.3c2.4,0,4.2,0.8,5.5,2.4c1.2,1.6,1.5,3.6,1,6L80.9,12.3z M77.1,8.7
		C77.5,7.2,77.4,6,77,5.2c-0.4-0.9-1.3-1.3-2.5-1.3c-1.2,0-2.3,0.4-3.2,1.4c-0.9,0.9-1.5,2.1-1.9,3.5l-0.9,3.6
		c-0.4,1.5-0.3,2.7,0.1,3.6c0.5,0.9,1.3,1.3,2.6,1.3c1.2,0,2.2-0.5,3.1-1.4c0.9-0.9,1.5-2.1,1.9-3.5L77.1,8.7z"/>
</g>
</svg>
