<?xml version="1.0" encoding="utf-8"?>
<!-- Generator: Adobe Illustrator 22.1.0, SVG Export Plug-In . SVG Version: 6.00 Build 0)  -->
<svg version="1.1" id="圖層_1" focusable="false" xmlns="http://www.w3.org/2000/svg" xmlns:xlink="http://www.w3.org/1999/xlink"
	 x="0px" y="0px" viewBox="0 0 512 512" style="enable-background:new 0 0 512 512;" xml:space="preserve">
<style type="text/css">
	.st0{fill:#231815;}
</style>
<g>
	<path class="st0" d="M506.8,224c-1.2,0-2.3-0.4-3.3-1.1L268.1,53.6c-7.2-5.2-17-5.2-24.3,0L8.6,222.9c-2.5,1.8-6.1,1.3-8-1.3
		s-1.3-6.1,1.3-8L237.2,44.3c11.3-8.1,26.4-8.1,37.6,0l235.3,169.3c2.6,1.8,3.1,5.4,1.3,8C510.3,223.2,508.5,224,506.8,224"/>
	<path class="st0" d="M422.7,294.6c-1.4,0-2.7-0.5-3.8-1.5l-156.4-142c-4-3.6-8.9-3.6-12.9,0l-156.4,142c-2.3,2.1-5.9,2-8.1-0.4
		c-2.1-2.3-2-6,0.4-8.1l156.4-142c8.3-7.6,20-7.6,28.3,0l156.4,142c2.3,2.1,2.5,5.7,0.4,8.1C425.8,294,424.3,294.6,422.7,294.6"/>
	<path class="st0" d="M351.2,367.4c-1.4,0-2.7-0.5-3.8-1.5L258,284.9c-1.3-1.2-2.7-1.2-4.1,0L164.7,366c-2.3,2.1-5.9,2-8.1-0.4
		c-2.1-2.3-2-6,0.4-8.1l89.3-81.1c5.7-5.2,13.7-5.2,19.4,0l89.3,81.1c2.3,2.1,2.5,5.7,0.4,8.1C354.3,366.8,352.7,367.4,351.2,367.4"
		/>
	<path class="st0" d="M257.5,473.7c-1.6,0-3.1-0.7-4.2-1.9l-36.4-39.8c-2.1-2.3-2-5.9,0.4-8.1c2.3-2.1,5.9-2,8.1,0.4l32,34.9
		l29.3-34.8c2-2.4,5.6-2.7,8.1-0.7c2.4,2,2.7,5.6,0.7,8.1l-33.5,39.7c-1.1,1.3-2.6,2-4.3,2H257.5z"/>
	<path class="st0" d="M360.4,373.3c-0.1,0-0.2,0-0.2,0l-53.8-2.4c-3.2-0.1-5.6-2.8-5.5-6c0.1-3.2,2.6-5.7,6-5.5l47.3,2.1l-3.9-45.3
		c-0.3-3.1,2.1-5.9,5.2-6.2c3.1-0.4,5.9,2,6.2,5.2l4.4,51.8c0.1,1.6-0.4,3.2-1.6,4.4C363.5,372.7,362,373.3,360.4,373.3"/>
	<path class="st0" d="M427.2,294.6c-0.1,0-0.2,0-0.2,0l-53.8-2.4c-3.2-0.1-5.6-2.8-5.5-6c0.1-3.1,2.9-5.7,6-5.5l47.3,2.1l-3.9-45.3
		c-0.3-3.1,2.1-5.9,5.2-6.2c3-0.3,5.9,2,6.2,5.2l4.4,51.8c0.1,1.6-0.4,3.2-1.6,4.4C430.3,294,428.8,294.6,427.2,294.6"/>
	<path class="st0" d="M156.1,373.3c-1.6,0-3.1-0.6-4.1-1.8c-1.1-1.2-1.7-2.8-1.6-4.4l4.4-51.8c0.3-3.1,3.2-5.5,6.2-5.2
		c3.1,0.3,5.5,3,5.2,6.2l-3.9,45.3l47.3-2.1c3.1-0.3,5.8,2.3,6,5.5c0.1,3.2-2.3,5.8-5.5,6l-53.8,2.4
		C156.2,373.3,156.2,373.3,156.1,373.3"/>
	<path class="st0" d="M89.3,294.6c-1.6,0-3.1-0.6-4.1-1.8c-1.1-1.2-1.7-2.8-1.6-4.4l4.4-51.8c0.3-3.1,3.1-5.5,6.2-5.2
		c3.1,0.3,5.5,3,5.2,6.2l-3.9,45.3l47.3-2.1c2.9-0.2,5.8,2.3,6,5.5c0.1,3.2-2.3,5.8-5.5,6l-53.8,2.4
		C89.5,294.6,89.4,294.6,89.3,294.6"/>
	<path class="st0" d="M256,466.1c-3.2,0-5.7-2.6-5.7-5.7V44c0-3.2,2.6-5.7,5.7-5.7c3.2,0,5.7,2.6,5.7,5.7v416.4
		C261.7,463.6,259.2,466.1,256,466.1"/>
</g>
<path class="st0" d="M3650.2,1047.6c2.3,6.7-1.3,13.9-8,16.2c-6.7,2.3-13.9-1.3-16.2-8c-2.3-6.7,1.3-13.9,8-16.2
	C3640.7,1037.3,3648,1040.9,3650.2,1047.6"/>
<path class="st0" d="M3707.2,1028.2c2.3,6.7-1.3,13.9-8,16.2c-6.7,2.3-13.9-1.3-16.2-8c-2.3-6.7,1.3-13.9,8-16.2
	C3697.7,1018,3705,1021.6,3707.2,1028.2"/>
<path class="st0" d="M3471,1146c-1.9,0-3.8-1.2-4.4-3.2c-0.8-2.4,0.5-5.1,2.9-5.9l421.3-142.8c2.4-0.8,5.1,0.5,5.9,2.9
	c0.8,2.4-0.5,5.1-2.9,5.9l-421.3,142.8C3472,1145.9,3471.5,1146,3471,1146"/>
<path class="st0" d="M3681.1,1180.5c-2.6,0-4.7-2.1-4.7-4.7v-105.7c0-2.6,2.1-4.7,4.7-4.7c2.6,0,4.7,2.1,4.7,4.7v105.7
	C3685.7,1178.5,3683.6,1180.5,3681.1,1180.5"/>
<path class="st0" d="M3802.8,1415.3H3562c-38.5,0-69.9-31.3-69.9-69.9V1242c0-38.5,31.3-69.9,69.9-69.9h240.8
	c38.5,0,69.9,31.3,69.9,69.9v103.5C3872.7,1384,3841.3,1415.3,3802.8,1415.3 M3562,1181.5c-33.4,0-60.5,27.2-60.5,60.5v103.5
	c0,33.4,27.2,60.6,60.5,60.6h240.8c33.4,0,60.6-27.2,60.6-60.6V1242c0-33.4-27.2-60.5-60.6-60.5H3562z"/>
<path class="st0" d="M3584.9,1288.9h-33.9c-13.9,0-25.1-11.3-25.1-25.2v-33.9c0-13.9,11.3-25.2,25.1-25.2h33.9
	c13.9,0,25.2,11.3,25.2,25.2v33.9C3610,1277.6,3598.7,1288.9,3584.9,1288.9 M3550.9,1214c-8.7,0-15.8,7.1-15.8,15.8v33.9
	c0,8.7,7.1,15.8,15.8,15.8h33.9c8.7,0,15.8-7.1,15.8-15.8v-33.9c0-8.7-7.1-15.8-15.8-15.8H3550.9z"/>
<path class="st0" d="M3698,1288.9h-33.9c-13.9,0-25.2-11.3-25.2-25.2v-33.9c0-13.9,11.3-25.2,25.2-25.2h33.9
	c13.9,0,25.2,11.3,25.2,25.2v33.9C3723.2,1277.6,3711.9,1288.9,3698,1288.9 M3664.1,1214c-8.7,0-15.8,7.1-15.8,15.8v33.9
	c0,8.7,7.1,15.8,15.8,15.8h33.9c8.7,0,15.8-7.1,15.8-15.8v-33.9c0-8.7-7.1-15.8-15.8-15.8H3664.1z"/>
<path class="st0" d="M3810.3,1288.9h-33.9c-13.9,0-25.1-11.3-25.1-25.2v-33.9c0-13.9,11.3-25.2,25.1-25.2h33.9
	c13.9,0,25.1,11.3,25.1,25.2v33.9C3835.5,1277.6,3824.2,1288.9,3810.3,1288.9 M3776.4,1214c-8.7,0-15.8,7.1-15.8,15.8v33.9
	c0,8.7,7.1,15.8,15.8,15.8h33.9c8.7,0,15.8-7.1,15.8-15.8v-33.9c0-8.7-7.1-15.8-15.8-15.8H3776.4z"/>
<path class="st0" d="M3868,1310.3h-371.2c-2.6,0-4.7-2.1-4.7-4.7c0-2.6,2.1-4.7,4.7-4.7H3868c2.6,0,4.7,2.1,4.7,4.7
	C3872.7,1308.3,3870.6,1310.3,3868,1310.3"/>
</svg>
