<?xml version="1.0" encoding="utf-8"?>
<!-- Generator: Adobe Illustrator 22.1.0, SVG Export Plug-In . SVG Version: 6.00 Build 0)  -->
<svg version="1.1" id="圖層_1" focusable="false" xmlns="http://www.w3.org/2000/svg" xmlns:xlink="http://www.w3.org/1999/xlink"
	 x="0px" y="0px" viewBox="0 0 512 512" style="enable-background:new 0 0 512 512;" xml:space="preserve">
<style type="text/css">
	.st0{fill:#231815;}
</style>
<g>
	<path class="st0" d="M218.6,69.3c2.7,7.9-1.6,16.6-9.5,19.2c-7.9,2.7-16.6-1.6-19.3-9.5c-2.7-7.9,1.6-16.6,9.5-19.2
		C207.3,57.1,215.9,61.3,218.6,69.3"/>
	<path class="st0" d="M286.4,46.3c2.7,7.9-1.6,16.6-9.5,19.3c-7.9,2.7-16.6-1.6-19.3-9.5c-2.7-7.9,1.6-16.6,9.5-19.2
		C275.1,34.1,283.7,38.3,286.4,46.3"/>
	<path class="st0" d="M5.5,186.3c-2.3,0-4.5-1.4-5.2-3.8c-1-2.9,0.6-6,3.5-7L504.7,5.8c2.9-1,6,0.6,7,3.5c1,2.9-0.6,6-3.5,7L7.3,186
		C6.7,186.2,6.1,186.3,5.5,186.3"/>
	<path class="st0" d="M255.3,227.4c-3.1,0-5.5-2.5-5.5-5.5V96.1c0-3.1,2.5-5.5,5.5-5.5c3.1,0,5.5,2.5,5.5,5.5v125.7
		C260.8,224.9,258.3,227.4,255.3,227.4"/>
	<path class="st0" d="M400,506.5H113.7c-45.8,0-83-37.3-83-83.1v-123c0-45.8,37.3-83,83-83H400c45.8,0,83.1,37.3,83.1,83v123
		C483.1,469.3,445.8,506.5,400,506.5 M113.7,228.5c-39.7,0-72,32.3-72,72v123c0,39.7,32.3,72,72,72H400c39.7,0,72-32.3,72-72v-123
		c0-39.7-32.3-72-72-72H113.7z"/>
	<path class="st0" d="M140.9,356.2h-40.3c-16.5,0-29.9-13.4-29.9-29.9V286c0-16.5,13.4-29.9,29.9-29.9h40.3
		c16.5,0,29.9,13.4,29.9,29.9v40.3C170.8,342.8,157.4,356.2,140.9,356.2 M100.6,267.1c-10.4,0-18.8,8.5-18.8,18.8v40.3
		c0,10.4,8.4,18.8,18.8,18.8h40.3c10.4,0,18.8-8.4,18.8-18.8V286c0-10.4-8.5-18.8-18.8-18.8H100.6z"/>
	<path class="st0" d="M275.4,356.2h-40.3c-16.5,0-29.9-13.4-29.9-29.9V286c0-16.5,13.4-29.9,29.9-29.9h40.3
		c16.5,0,29.9,13.4,29.9,29.9v40.3C305.3,342.8,291.9,356.2,275.4,356.2 M235.1,267.1c-10.4,0-18.8,8.5-18.8,18.8v40.3
		c0,10.4,8.5,18.8,18.8,18.8h40.3c10.4,0,18.8-8.4,18.8-18.8V286c0-10.4-8.5-18.8-18.8-18.8H235.1z"/>
	<path class="st0" d="M409,356.2h-40.3c-16.5,0-29.9-13.4-29.9-29.9V286c0-16.5,13.4-29.9,29.9-29.9H409c16.5,0,29.9,13.4,29.9,29.9
		v40.3C438.9,342.8,425.4,356.2,409,356.2 M368.6,267.1c-10.4,0-18.8,8.5-18.8,18.8v40.3c0,10.4,8.4,18.8,18.8,18.8H409
		c10.4,0,18.8-8.4,18.8-18.8V286c0-10.4-8.4-18.8-18.8-18.8H368.6z"/>
	<path class="st0" d="M477.5,381.7H36.2c-3.1,0-5.5-2.5-5.5-5.5c0-3.1,2.5-5.5,5.5-5.5h441.4c3.1,0,5.5,2.5,5.5,5.5
		C483.1,379.2,480.6,381.7,477.5,381.7"/>
</g>
</svg>
