<svg id="eskimo_x5F_woman" enable-background="new 0 0 300 300" height="512" viewBox="0 0 300 300" width="512" xmlns="http://www.w3.org/2000/svg"><circle cx="180" cy="122" fill="#edebdc" r="92"/><g fill="#4c241d"><path d="m57.168 52.198c-1.016 0-2.031-.383-2.809-1.152l-11.39-11.239c-1.574-1.553-1.59-4.084-.039-5.656 1.547-1.574 4.086-1.59 5.656-.039l11.391 11.238c1.574 1.553 1.59 4.084.039 5.656-.782.793-1.817 1.192-2.848 1.192z"/><path d="m45.856 52.272c-1.016 0-2.031-.385-2.809-1.152-1.574-1.553-1.59-4.086-.039-5.658l11.238-11.387c1.559-1.574 4.09-1.584 5.656-.037 1.574 1.553 1.59 4.086.039 5.658l-11.238 11.386c-.785.793-1.816 1.19-2.847 1.19z"/><path d="m257.168 224.198c-1.016 0-2.031-.383-2.809-1.152l-11.391-11.238c-1.574-1.553-1.59-4.084-.039-5.656s4.09-1.59 5.656-.039l11.391 11.238c1.574 1.553 1.59 4.084.039 5.656-.781.792-1.816 1.191-2.847 1.191z"/><path d="m245.856 224.272c-1.016 0-2.031-.385-2.809-1.152-1.574-1.553-1.59-4.086-.039-5.658l11.238-11.387c1.559-1.574 4.09-1.584 5.656-.037 1.574 1.553 1.59 4.086.039 5.658l-11.238 11.387c-.785.792-1.816 1.189-2.847 1.189z"/><path d="m248 54c-6.578 0-11.953-5.33-12-11.92-.039-6.619 5.305-12.035 11.918-12.08 6.742-.061 12.031 5.303 12.082 11.92v.002c.039 6.617-5.305 12.033-11.918 12.078-.027 0-.055 0-.082 0zm0-16c-.012 0-.02 0-.027 0-2.203.014-3.988 1.822-3.973 4.027.016 2.195 1.809 3.973 4 3.973h.027c2.203-.014 3.988-1.822 3.973-4.027-.016-2.197-1.809-3.973-4-3.973z"/><path d="m216 270c-6.578 0-11.953-5.33-12-11.92-.039-6.619 5.305-12.035 11.918-12.08 6.66.031 12.035 5.303 12.082 11.92v.002c.039 6.617-5.305 12.033-11.918 12.078-.027 0-.055 0-.082 0zm0-16c-.012 0-.02 0-.027 0-2.203.014-3.988 1.822-3.973 4.027.016 2.195 1.809 3.973 4 3.973h.027c2.203-.014 3.988-1.822 3.973-4.027-.016-2.197-1.809-3.973-4-3.973z"/><path d="m40 254c-6.578 0-11.953-5.33-12-11.92-.039-6.619 5.305-12.035 11.918-12.08h.082c6.578 0 11.953 5.33 12 11.92v.002c.039 6.617-5.305 12.033-11.918 12.078-.027 0-.055 0-.082 0zm0-16c-.012 0-.02 0-.027 0-2.203.014-3.988 1.822-3.973 4.027.016 2.195 1.809 3.973 4 3.973h.027c2.203-.014 3.988-1.822 3.973-4.027-.016-2.197-1.808-3.973-4-3.973z"/><circle cx="203.549" cy="41.6" r="4.292"/><circle cx="259.549" cy="253.6" r="4.292"/><circle cx="39.549" cy="81.6" r="4.292"/><circle cx="75.549" cy="257.6" r="4.292"/><circle cx="35.549" cy="205.6" r="4.292"/></g><path d="m139.45 139.25-5.1-20.4-10.35 19.15-36.954-12.772c-3.952 8.095-6.232 17.157-6.232 26.772 0 33.792 27.394 61.186 61.186 61.186s61.186-27.394 61.186-61.186c0-8.707-1.846-16.974-5.124-24.472z" fill="#e7d1c4"/><path d="m142 217.186c-35.945 0-65.188-29.242-65.188-65.186 0-9.906 2.234-19.506 6.641-28.529.887-1.814 2.98-2.68 4.902-2.025l33.742 11.664 8.734-16.162c.785-1.451 2.355-2.273 4.02-2.066 1.637.207 2.98 1.398 3.379 3l4.176 16.699 54.871-10.975c1.848-.373 3.699.598 4.449 2.32 3.625 8.289 5.461 17.061 5.461 26.074.001 35.944-29.242 65.186-65.187 65.186zm-52.812-86.987c-2.906 6.969-4.375 14.285-4.375 21.801 0 31.531 25.652 57.186 57.188 57.186s57.188-25.654 57.188-57.186c0-6.836-1.207-13.516-3.59-19.9l-55.363 11.072c-2.098.416-4.148-.879-4.664-2.953l-2.602-10.4-5.449 10.084c-.93 1.721-2.961 2.516-4.828 1.879z" fill="#4c241d"/><path d="m144.602 193.813c-4.07 0-7.969-1.508-10.977-4.244-1.633-1.486-1.754-4.018-.266-5.65 1.492-1.631 4.02-1.75 5.648-.268 3.168 2.887 8.434 2.766 11.477-.273 1.555-1.559 4.094-1.562 5.656.004 1.559 1.564 1.559 4.096-.008 5.656-3.081 3.079-7.179 4.775-11.53 4.775z" fill="#4c241d"/><path d="m108.316 165.813c-1.023 0-2.047-.391-2.828-1.172-1.562-1.564-1.562-4.096 0-5.658 3.082-3.08 7.18-4.775 11.535-4.775 4.07 0 7.965 1.506 10.977 4.24 1.633 1.486 1.754 4.018.27 5.652-1.488 1.637-4.02 1.752-5.652.27-3.168-2.887-8.438-2.766-11.473.273-.782.779-1.805 1.17-2.829 1.17z" fill="#4c241d"/><path d="m156.316 165.813c-1.023 0-2.047-.391-2.828-1.172-1.562-1.564-1.562-4.096 0-5.658 3.082-3.08 7.18-4.775 11.535-4.775 4.07 0 7.965 1.506 10.977 4.24 1.633 1.486 1.754 4.018.27 5.652-1.484 1.637-4.02 1.752-5.652.27-3.168-2.887-8.434-2.766-11.473.273-.782.779-1.805 1.17-2.829 1.17z" fill="#4c241d"/><path d="m242.89 167.017c-3.883 6.624-11.058 11.085-19.29 11.085-10.036 0-18.528-6.61-21.361-15.713-4.587 26.764-26.497 47.603-53.814 50.456 8.496 3.079 14.578 11.197 14.578 20.756 0 8.895-5.268 16.543-12.844 20.046 47.513-3.765 85.858-40.059 92.731-86.63z" fill="#bd53b5"/><path d="m150.156 257.647c-1.801 0-3.402-1.217-3.867-2.986-.488-1.875.434-3.83 2.191-4.645 6.395-2.957 10.523-9.4 10.523-16.416 0-7.576-4.801-14.406-11.941-16.996-1.754-.635-2.832-2.396-2.605-4.246s1.699-3.299 3.555-3.492c25.301-2.641 45.98-22.031 50.285-47.152.312-1.822 1.832-3.193 3.68-3.316 1.773-.129 3.531 1.035 4.082 2.805 2.398 7.717 9.449 12.9 17.543 12.9 6.477 0 12.547-3.49 15.84-9.107.969-1.65 2.969-2.387 4.777-1.75 1.805.637 2.91 2.463 2.629 4.357-7.133 48.309-47.66 86.172-96.371 90.033-.106.007-.215.011-.321.011zm8.922-42.739c4.949 4.818 7.926 11.523 7.926 18.691 0 5.1-1.512 9.99-4.188 14.131 34.988-7.678 63.559-34.465 73.434-68.893-3.824 2.104-8.168 3.264-12.648 3.264-7.879 0-15.066-3.424-19.953-9.082-6.969 20.429-23.782 36.227-44.571 41.889z" fill="#4c241d"/><path d="m163.003 233.6c0-9.559-6.082-17.677-14.578-20.756-2.113.22-4.254.342-6.425.342-33.792 0-61.186-27.394-61.186-61.186 0-9.615 2.28-18.677 6.232-26.772 9.937-20.356 30.777-34.414 54.954-34.414 25.085 0 46.617 15.111 56.062 36.714 3.278 7.498 5.124 15.765 5.124 24.472 0 3.549-.367 7.005-.947 10.388 2.833 9.104 11.325 15.713 21.361 15.713 8.233 0 15.407-4.461 19.29-11.085.723-4.902 1.11-9.914 1.11-15.017 0-56.333-45.667-102-102-102s-102 45.668-102 102.001 45.667 102 102 102c2.75 0 5.465-.141 8.159-.354 7.576-3.503 12.844-11.151 12.844-20.046z" fill="#fff"/><path d="m142 258c-58.449 0-106-47.551-106-106s47.551-106 106-106 106 47.551 106 106c0 5.166-.387 10.414-1.152 15.602-.074.508-.246.996-.508 1.439-4.723 8.057-13.434 13.061-22.738 13.061-11.617 0-21.734-7.445-25.184-18.525-.188-.604-.23-1.242-.121-1.865.598-3.486.891-6.662.891-9.711 0-7.904-1.613-15.6-4.789-22.871-9.117-20.846-29.684-34.314-52.398-34.314-21.992 0-41.672 12.326-51.359 32.166-3.867 7.922-5.828 16.34-5.828 25.02 0 31.531 25.652 57.186 57.188 57.186 1.953 0 3.977-.107 6.012-.32.605-.059 1.211.014 1.777.219 10.297 3.732 17.215 13.584 17.215 24.516 0 10.121-5.953 19.416-15.164 23.678-.43.199-.891.32-1.363.357-3.12.243-5.893.362-8.479.362zm8.16-4.353h.039zm-8.16-199.647c-54.039 0-98 43.963-98 98s43.961 98 98 98c2.168 0 4.496-.094 7.098-.283 6.039-3.078 9.906-9.33 9.906-16.117 0-7.289-4.441-13.887-11.141-16.682-1.98.178-3.949.268-5.863.268-35.945 0-65.188-29.242-65.188-65.186 0-9.906 2.234-19.506 6.641-28.529 11.039-22.609 33.473-36.656 58.547-36.656 25.895 0 49.34 15.352 59.727 39.111 3.625 8.289 5.461 17.061 5.461 26.074 0 3.207-.273 6.506-.84 10.059 2.641 7.24 9.465 12.043 17.254 12.043 6.227 0 12.078-3.227 15.445-8.469.633-4.539.953-9.121.953-13.633 0-54.037-43.961-98-98-98z" fill="#4c241d"/><path d="m198.062 127.528c-.859-1.967-1.853-3.859-2.906-5.711-.186-.326-.367-.653-.559-.975-1.098-1.85-2.281-3.641-3.562-5.358-.057-.076-.117-.148-.174-.223-2.769-3.68-5.944-7.028-9.457-9.997 0 0 0-.001-.001-.001-10.643-8.996-24.373-14.449-39.403-14.449-18.452 0-34.942 8.205-46.144 21.132-.26.299-.506.608-.76.912-.771.926-1.517 1.871-2.233 2.841-.293.396-.583.794-.866 1.198-.668.951-1.303 1.925-1.917 2.915-.246.396-.502.784-.74 1.186-.813 1.379-1.588 2.784-2.294 4.229-3.952 8.095-6.232 17.157-6.232 26.772 0 .657.078 1.293.098 1.945.363.016.721.056 1.088.056 12.879 0 23.542-9.374 25.61-21.665l16.39 5.665 10.35-19.15 5.1 20.4 29.126-5.825c2.496 11.754 12.926 20.575 25.424 20.575 3.233 0 6.315-.617 9.171-1.696.001-.103.015-.201.015-.304 0-8.707-1.846-16.974-5.124-24.472z" fill="#6b4f5b"/><path d="m194 158c-12.742 0-24.059-8.178-28.254-19.93l-25.512 5.102c-2.098.416-4.148-.879-4.664-2.953l-2.602-10.4-5.449 10.084c-.93 1.721-2.98 2.516-4.824 1.879l-12.27-4.24c-4.015 12.091-15.319 20.458-28.425 20.458-.32 0-.641-.018-.953-.039-2.086-.092-4.055-1.787-4.129-3.871l-.043-.662c-.031-.473-.062-.947-.062-1.428 0-9.906 2.234-19.506 6.641-28.529.746-1.535 1.574-3.033 2.441-4.504l.789-1.271c.656-1.051 1.328-2.086 2.039-3.098l.922-1.275c.762-1.033 1.559-2.043 2.387-3.031l.789-.949c12.41-14.322 30.332-22.527 49.18-22.527 15.328 0 30.238 5.467 41.984 15.393 3.762 3.178 7.148 6.762 10.074 10.65 1.516 2.021 2.793 3.943 3.98 5.945l.398.691c1.453 2.551 2.465 4.543 3.289 6.432 3.625 8.289 5.461 17.061 5.461 26.074 0 .104-.012.359-.02.463-.121 1.545-1.133 3.035-2.582 3.584-3.433 1.296-6.995 1.952-10.585 1.952zm9.172-5.695h.039zm-34.59-22.879c1.852 0 3.512 1.291 3.91 3.17 2.137 10.084 11.184 17.404 21.508 17.404 1.723 0 3.441-.209 5.137-.623-.309-6.91-1.898-13.748-4.738-20.248-.711-1.629-1.602-3.373-2.719-5.332l-.52-.912c-1.047-1.764-2.168-3.449-3.332-5.012-2.73-3.621-5.703-6.766-9.008-9.553-10.305-8.709-23.379-13.506-36.82-13.506-16.527 0-32.242 7.199-43.121 19.75l-.707.855c-.727.867-1.422 1.748-2.086 2.65l-.828 1.139c-.613.877-1.207 1.791-1.785 2.719l-.691 1.109c-.754 1.279-1.48 2.59-2.137 3.939-3.547 7.26-5.488 14.932-5.789 22.84 9.488-1.223 17.184-8.477 18.809-18.145.195-1.16.891-2.176 1.902-2.775 1.016-.602 2.246-.723 3.348-.342l13.184 4.555 8.734-16.162c.785-1.451 2.355-2.273 4.02-2.066 1.637.207 2.98 1.398 3.379 3l4.176 16.699 25.387-5.076c.264-.052.529-.077.787-.077z" fill="#4c241d"/></svg>