<svg id="ice_x5F_skating_x5F_boot" enable-background="new 0 0 300 300" height="512" viewBox="0 0 300 300" width="512" xmlns="http://www.w3.org/2000/svg"><circle cx="144" cy="162.557" fill="#edebdc" r="92"/><path d="m68 218.557v-30.352c0-4.601.965-9.151 2.833-13.356 3.41-8.113 5.167-16.825 5.167-25.625v-102.667h88l.258 101.908c.026 10.201 8.303 18.458 18.504 18.458h6.302c21.504 0 38.936 17.432 38.936 38.936v12.699h-160z" fill="#e5efef"/><path d="m228 222.557h-160c-2.209 0-4-1.791-4-4v-30.352c0-5.193 1.068-10.234 3.176-14.98 3.191-7.586 4.824-15.685 4.824-24.002v-102.666c0-2.209 1.791-4 4-4h88c2.205 0 3.994 1.785 4 3.99l.258 101.908c.02 7.977 6.525 14.467 14.504 14.467h6.303c23.674 0 42.936 19.262 42.936 42.936v12.699c-.001 2.209-1.792 4-4.001 4zm-156-8h152v-8.699c0-19.264-15.672-34.936-34.936-34.936h-6.303c-12.377 0-22.473-10.07-22.504-22.447l-.248-97.918h-80.009v98.666c0 9.387-1.844 18.531-5.48 27.176-1.682 3.791-2.52 7.738-2.52 11.807z" fill="#4c241d"/><path d="m68 218.557h160v16h-160z" fill="#9dc1e4"/><path d="m228 238.557h-160c-2.209 0-4-1.791-4-4v-16c0-2.209 1.791-4 4-4h160c2.209 0 4 1.791 4 4v16c0 2.209-1.791 4-4 4zm-156-8h152v-8h-152z" fill="#4c241d"/><path d="m248 236.557v4.177c0 5.449-4.418 9.867-9.867 9.867h-30.133v-16.043h-12v16.043h-96v-16.043h-12v16.043h-34.022c-3.302 0-5.978 2.677-5.978 5.978 0 3.302 2.677 5.978 5.978 5.978h194.022.043c6.603 0 11.957-5.353 11.957-11.957v-14.043c0-3.314-2.686-6-6-6-3.314 0-6 2.687-6 6z" fill="#fff"/><path d="m248.043 266.557h-194.064c-5.502 0-9.979-4.477-9.979-9.979s4.477-9.979 9.979-9.979h30.021v-12.043c0-2.209 1.791-4 4-4h12c2.209 0 4 1.791 4 4v12.044h88v-12.043c0-2.209 1.791-4 4-4h12c2.209 0 4 1.791 4 4v12.043h26.133c3.234 0 5.867-2.633 5.867-5.867v-4.176c0-5.514 4.486-10 10-10s10 4.486 10 10v14.043c0 8.799-7.158 15.957-15.957 15.957zm-194.064-11.957c-1.092 0-1.979.887-1.979 1.979s.887 1.979 1.979 1.979h194.021c4.43 0 8-3.57 8-7.957v-14.043c0-1.104-.896-2-2-2s-2 .896-2 2v4.176c0 7.646-6.221 13.867-13.867 13.867h-30.133c-2.209 0-4-1.791-4-4v-12.043h-4v12.042c0 2.209-1.791 4-4 4h-96c-2.209 0-4-1.791-4-4v-12.043h-4v12.043c0 2.209-1.791 4-4 4z" fill="#4c241d"/><path d="m76 46.557h88v24h-88z" fill="#9dc1e4"/><path d="m164 74.557h-88c-2.209 0-4-1.791-4-4v-24c0-2.209 1.791-4 4-4h88c2.209 0 4 1.791 4 4v24c0 2.209-1.791 4-4 4zm-84-8h80v-16h-80z" fill="#4c241d"/><path d="m76 94.557h88v16h-88z" fill="#bd53b5"/><path d="m164 114.557h-88c-2.209 0-4-1.791-4-4v-16c0-2.209 1.791-4 4-4h88c2.209 0 4 1.791 4 4v16c0 2.209-1.791 4-4 4zm-84-8h80v-8h-80z" fill="#4c241d"/><path d="m103.754 118.557c-4.554 0-8.246-3.692-8.246-8.246v-15.507c0-4.554 3.692-8.246 8.246-8.246 4.554 0 8.246 3.692 8.246 8.246v15.508c0 4.553-3.692 8.245-8.246 8.245z" fill="#c1dbdc"/><path d="m103.754 122.557c-6.752 0-12.246-5.494-12.246-12.246v-15.507c0-6.752 5.494-12.246 12.246-12.246s12.246 5.494 12.246 12.246v15.508c0 6.751-5.494 12.245-12.246 12.245zm0-32c-2.342 0-4.246 1.904-4.246 4.246v15.508c0 2.342 1.904 4.246 4.246 4.246s4.246-1.904 4.246-4.246v-15.507c0-2.342-1.904-4.247-4.246-4.247z" fill="#4c241d"/><path d="m208.002 198.557c-1.188 0-2.363-.527-3.152-1.535-4.434-5.664-10.873-9.043-18.623-9.775-2.199-.207-3.812-2.158-3.605-4.359.205-2.197 2.113-3.834 4.359-3.605 9.99.943 18.348 5.373 24.17 12.811 1.361 1.738 1.055 4.252-.686 5.615-.731.571-1.6.848-2.463.848z" fill="#4c241d"/><path d="m84 194.557v-6.477c0-6.209 1.838-12.279 5.282-17.446 1.772-2.658 2.718-5.782 2.718-8.976v-7.1" fill="#c1dbdc"/><g fill="#4c241d"><path d="m84 198.557c-2.209 0-4-1.791-4-4v-6.477c0-7.023 2.059-13.822 5.953-19.666 1.34-2.008 2.047-4.344 2.047-6.758v-7.1c0-2.209 1.791-4 4-4s4 1.791 4 4v7.1c0 4-1.172 7.871-3.391 11.197-3.015 4.523-4.609 9.79-4.609 15.228v6.477c0 2.208-1.791 3.999-4 3.999z"/><path d="m96 74.557c-2.209 0-4-1.791-4-4v-24c0-2.209 1.791-4 4-4s4 1.791 4 4v24c0 2.209-1.791 4-4 4z"/><path d="m112 74.557c-2.209 0-4-1.791-4-4v-24c0-2.209 1.791-4 4-4s4 1.791 4 4v24c0 2.209-1.791 4-4 4z"/><path d="m128 74.557c-2.209 0-4-1.791-4-4v-24c0-2.209 1.791-4 4-4s4 1.791 4 4v24c0 2.209-1.791 4-4 4z"/><path d="m144 74.557c-2.209 0-4-1.791-4-4v-24c0-2.209 1.791-4 4-4s4 1.791 4 4v24c0 2.209-1.791 4-4 4z"/><path d="m257.168 112.755c-1.016 0-2.029-.383-2.809-1.152l-11.389-11.238c-1.574-1.553-1.59-4.084-.039-5.658 1.553-1.572 4.084-1.59 5.656-.037l11.389 11.238c1.574 1.553 1.59 4.084.039 5.658-.783.792-1.814 1.189-2.847 1.189z"/><path d="m245.854 112.829c-1.016 0-2.031-.385-2.811-1.152-1.572-1.553-1.588-4.086-.037-5.658l11.238-11.387c1.553-1.574 4.086-1.586 5.658-.037 1.572 1.553 1.588 4.086.037 5.658l-11.238 11.387c-.783.792-1.814 1.189-2.847 1.189z"/><path d="m53.168 52.755c-1.016 0-2.029-.383-2.809-1.152l-11.388-11.239c-1.574-1.553-1.59-4.084-.039-5.658 1.553-1.572 4.084-1.59 5.656-.037l11.389 11.238c1.574 1.553 1.59 4.084.039 5.658-.784.793-1.815 1.19-2.848 1.19z"/><path d="m41.854 52.829c-1.016 0-2.031-.385-2.811-1.152-1.572-1.553-1.588-4.086-.037-5.658l11.238-11.387c1.555-1.572 4.088-1.586 5.658-.037 1.572 1.553 1.588 4.086.037 5.658l-11.238 11.386c-.783.793-1.814 1.19-2.847 1.19z"/><path d="m203.998 74.557c-6.58 0-11.955-5.33-11.998-11.92-.043-6.617 5.305-12.035 11.92-12.08h.082c6.58 0 11.955 5.33 11.998 11.92.043 6.617-5.305 12.035-11.92 12.08-.027 0-.055 0-.082 0zm.002-16c-.008 0-.018 0-.025 0-2.207.014-3.99 1.82-3.975 4.025.014 2.197 1.807 3.975 4 3.975h.025c2.207-.014 3.99-1.82 3.975-4.025-.014-2.197-1.807-3.975-4-3.975z"/><path d="m47.998 166.557c-6.58 0-11.955-5.33-11.998-11.92-.043-6.617 5.305-12.035 11.92-12.08h.082c6.58 0 11.955 5.33 11.998 11.92.043 6.617-5.305 12.035-11.92 12.08-.027 0-.055 0-.082 0zm.002-16c-.008 0-.018 0-.025 0-2.207.014-3.99 1.82-3.975 4.025.014 2.205 1.76 3.986 4.025 3.975 2.207-.014 3.99-1.82 3.975-4.025-.014-2.197-1.807-3.975-4-3.975z"/><path d="m251.998 182.557c-6.58 0-11.955-5.33-11.998-11.92-.043-6.617 5.305-12.035 11.92-12.08 6.559-.135 12.037 5.303 12.08 11.92s-5.305 12.035-11.92 12.08c-.027 0-.055 0-.082 0zm.002-16c-.008 0-.018 0-.025 0-2.207.014-3.99 1.82-3.975 4.025.014 2.205 1.918 3.943 4.025 3.975 2.207-.014 3.99-1.82 3.975-4.025-.014-2.197-1.807-3.975-4-3.975z"/><circle cx="203.549" cy="126.157" r="4.292"/><circle cx="259.549" cy="38.157" r="4.292"/><circle cx="47.549" cy="98.157" r="4.292"/></g></svg>