<svg id="snowflake" enable-background="new 0 0 300 300" height="512" viewBox="0 0 300 300" width="512" xmlns="http://www.w3.org/2000/svg"><circle cx="118.001" cy="126.305" fill="#edebdc" r="92"/><path d="m241.57 66.58c-3.739-2.691-8.974-2.82-12.838-.311-4.274 2.776-5.962 7.57-5.092 11.969l-13.639 13.198v-11.131c0-3.314-2.686-6-6-6-3.314 0-6 2.686-6 6v22.742l-30.116 29.141 8.667 8.957 27.739-26.841h23.71c3.314 0 6-2.686 6-6 0-3.314-2.686-6-6-6h-11.309l15.615-15.11c3.682.855 7.704-.097 10.623-2.921 5.076-4.911 4.665-13.358-1.36-17.693z" fill="#fff"/><path d="m176.552 145.145c-.021 0-.043 0-.066 0-1.061-.018-2.07-.457-2.809-1.219l-8.666-8.957c-1.535-1.588-1.494-4.119.094-5.656l28.896-27.961v-21.047c0-5.514 4.486-10 10-10s10 4.486 10 10v1.693l5.434-5.258c-.271-5.488 2.375-10.744 7.119-13.826 5.273-3.42 12.248-3.252 17.352.418 3.791 2.727 6.156 6.93 6.492 11.527.336 4.602-1.371 9.08-4.686 12.287-3.24 3.137-7.623 4.658-12.047 4.301l-7.086 6.857h1.422c5.514 0 10 4.486 10 10s-4.486 10-10 10h-22.091l-26.576 25.715c-.747.723-1.745 1.126-2.782 1.126zm-3.01-12.864 3.104 3.207 24.863-24.059c.746-.721 1.744-1.125 2.781-1.125h23.711c1.104 0 2-.896 2-2s-.896-2-2-2h-11.309c-1.629 0-3.098-.988-3.707-2.5-.611-1.51-.246-3.242.926-4.375l15.615-15.109c.977-.941 2.357-1.334 3.688-1.021 2.504.592 5.104-.125 6.936-1.9 1.605-1.553 2.432-3.725 2.27-5.957-.166-2.262-1.297-4.256-3.186-5.613 0-.002 0-.002-.002-.002-2.41-1.734-5.832-1.82-8.32-.203-3.201 2.08-3.828 5.412-3.348 7.838.264 1.332-.166 2.707-1.143 3.652l-13.639 13.197c-1.154 1.115-2.867 1.432-4.342.809-1.479-.627-2.439-2.078-2.439-3.684v-11.131c0-1.104-.896-2-2-2s-2 .896-2 2v22.742c0 1.084-.439 2.121-1.219 2.875z" fill="#4c241d"/><path d="m140.724 175.815-8.667-8.957-28.594 27.669-23.392-.385c-3.313-.055-6.043 2.587-6.097 5.9-.054 3.313 2.587 6.043 5.9 6.097l11.396.187-14.967 14.482c-4.368-1.014-9.215.515-12.13 4.695-2.635 3.779-2.677 9.014-.112 12.84 4.134 6.165 12.564 6.855 17.64 1.943 2.918-2.824 4.003-6.813 3.269-10.521l17.116-16.562-.178 10.804c-.055 3.367 2.629 6.142 5.997 6.197 3.367.055 6.142-2.629 6.197-5.997l.378-22.998z" fill="#fff"/><path d="m73.699 247.527c-.549 0-1.1-.029-1.652-.088-4.586-.486-8.709-2.99-11.309-6.867-3.504-5.227-3.443-12.201.152-17.357 3.234-4.639 8.568-7.117 14.055-6.658l6.604-6.391-1.742-.027c-2.67-.045-5.164-1.127-7.021-3.045-1.857-1.92-2.855-4.449-2.812-7.119.045-2.67 1.127-5.164 3.045-7.021s4.439-2.861 7.119-2.812l21.734.357 27.404-26.516c1.584-1.537 4.119-1.494 5.656.094l8.668 8.957c.736.762 1.143 1.787 1.125 2.848s-.457 2.07-1.219 2.809l-25.053 24.242-.352 21.342c-.045 2.695-1.137 5.215-3.074 7.09-1.939 1.877-4.479 2.848-7.188 2.842-5.568-.094-10.021-4.697-9.932-10.262l.02-1.15-8.754 8.469c.225 4.439-1.451 8.762-4.691 11.898-2.914 2.818-6.774 4.365-10.783 4.365zm-.041-23.019c-2.115 0-4.512.855-6.205 3.283-1.697 2.434-1.727 5.857-.07 8.324 1.297 1.934 3.252 3.131 5.508 3.369 2.225.221 4.424-.521 6.029-2.074 1.832-1.771 2.625-4.34 2.125-6.867-.264-1.332.166-2.707 1.143-3.652l17.117-16.562c1.166-1.123 2.889-1.436 4.373-.795 1.484.645 2.434 2.117 2.408 3.736l-.178 10.805c-.02 1.154.906 2.111 2.062 2.131.613.018 1.092-.199 1.492-.59.402-.391.631-.914.639-1.473l.379-23c.018-1.061.457-2.07 1.219-2.809l23.369-22.613-3.105-3.207-25.719 24.886c-.762.738-1.676 1.127-2.848 1.125l-23.393-.385c-.697.049-1.199.348-1.422.562s-.598.684-.609 1.404c-.012.719.348 1.199.562 1.422s.684.598 1.404.609l11.396.188c1.617.027 3.059 1.025 3.654 2.529.594 1.506.223 3.221-.939 4.346l-14.967 14.482c-.975.943-2.361 1.332-3.688 1.021-.537-.123-1.125-.195-1.736-.195z" fill="#4c241d"/><path d="m67.039 66.58c3.739-2.691 8.974-2.82 12.838-.311 4.274 2.776 5.963 7.57 5.092 11.969l13.639 13.198v-11.131c0-3.314 2.686-6 6-6 3.314 0 6 2.686 6 6v22.742l30.116 29.141-8.667 8.957-27.739-26.841h-23.71c-3.314 0-6-2.686-6-6 0-3.314 2.686-6 6-6h11.309l-15.615-15.11c-3.682.855-7.704-.097-10.623-2.921-5.076-4.911-4.665-13.358 1.36-17.693z" fill="#fff"/><path d="m132.056 145.145c-1.002 0-2.004-.373-2.781-1.125l-26.576-25.715h-22.092c-5.514 0-10-4.486-10-10s4.486-10 10-10h1.424l-7.086-6.857c-4.422.383-8.807-1.162-12.047-4.299-3.314-3.207-5.021-7.684-4.688-12.287.336-4.598 2.701-8.801 6.492-11.527 5.107-3.68 12.082-3.844 17.354-.418 4.742 3.078 7.391 8.334 7.117 13.824l5.434 5.258v-1.693c0-5.514 4.486-10 10-10s10 4.486 10 10v21.047l28.898 27.961c.762.738 1.201 1.748 1.219 2.809s-.389 2.086-1.125 2.848l-8.668 8.957c-.785.808-1.83 1.217-2.875 1.217zm-51.449-38.84c-1.104 0-2 .896-2 2s.896 2 2 2h23.711c1.037 0 2.035.404 2.781 1.125l24.863 24.059 3.105-3.207-27.242-26.359c-.779-.754-1.219-1.791-1.219-2.875v-22.743c0-1.104-.896-2-2-2s-2 .896-2 2v11.131c0 1.605-.961 3.057-2.439 3.684-1.48.623-3.189.307-4.342-.809l-13.638-13.198c-.977-.945-1.406-2.32-1.143-3.652.48-2.426-.146-5.76-3.346-7.836-2.488-1.621-5.91-1.533-8.324.201-1.889 1.359-3.02 3.354-3.184 5.617-.164 2.23.664 4.402 2.27 5.955 1.834 1.775 4.426 2.492 6.936 1.9 1.328-.311 2.715.078 3.688 1.021l15.615 15.111c1.172 1.133 1.537 2.865.926 4.375-.609 1.512-2.078 2.5-3.707 2.5zm-13.568-39.725h.039z" fill="#4c241d"/><path d="m167.885 175.815 8.667-8.957 28.594 27.669 23.392-.385c3.313-.055 6.043 2.587 6.097 5.9.054 3.313-2.587 6.043-5.9 6.097l-11.396.187 14.967 14.482c4.368-1.014 9.215.515 12.13 4.695 2.635 3.779 2.677 9.014.112 12.84-4.134 6.165-12.564 6.855-17.64 1.943-2.918-2.824-4.003-6.813-3.269-10.521l-17.116-16.562.179 10.903c.055 3.313-2.587 6.043-5.9 6.097l-.197.003c-3.313.055-6.043-2.587-6.097-5.9l-.38-23.097z" fill="#fff"/><path d="m234.912 247.527c-4.01 0-7.869-1.547-10.783-4.367-3.24-3.135-4.918-7.459-4.693-11.898l-8.754-8.469.021 1.246c.043 2.67-.955 5.199-2.811 7.117-1.857 1.92-4.352 3.002-7.021 3.047-5.598.041-10.27-4.318-10.361-9.83l-.354-21.441-25.051-24.242c-1.588-1.537-1.629-4.068-.094-5.656l8.666-8.957c.738-.762 1.748-1.201 2.809-1.219 1.145-.014 2.086.387 2.848 1.125l27.404 26.516 21.734-.357c5.555.059 10.072 4.322 10.164 9.834.043 2.67-.955 5.199-2.812 7.119-1.857 1.918-4.352 3-7.021 3.045l-1.74.027 6.604 6.391c5.486-.459 10.82 2.02 14.053 6.66 3.596 5.154 3.656 12.129.152 17.355-2.602 3.879-6.723 6.381-11.309 6.867-.552.058-1.105.087-1.651.087zm-28.389-38.324c1.018 0 2.02.389 2.781 1.125l17.117 16.562c.977.945 1.406 2.32 1.143 3.652-.5 2.527.295 5.096 2.127 6.867 1.604 1.553 3.803 2.291 6.027 2.074 2.256-.238 4.211-1.436 5.508-3.367 1.656-2.469 1.627-5.893-.07-8.324-2.182-3.133-5.537-3.66-7.941-3.088-1.332.307-2.713-.078-3.688-1.021l-14.967-14.482c-1.162-1.125-1.533-2.84-.939-4.346.596-1.504 2.037-2.502 3.654-2.529l11.395-.188c.721-.012 1.189-.387 1.404-.609.217-.221.574-.701.562-1.422-.018-1.092-.91-1.967-1.998-1.967-.012 0-.023 0-.033 0l-23.393.385c-1.117.021-2.086-.387-2.848-1.125l-25.719-24.887-3.104 3.207 23.367 22.613c.762.738 1.201 1.748 1.219 2.809l.381 23.098c.018 1.104.871 1.994 2.031 1.965.918-.014 1.385-.389 1.6-.609.217-.223.574-.703.562-1.424l-.18-10.902c-.025-1.617.924-3.092 2.408-3.736.516-.223 1.057-.331 1.594-.331z" fill="#4c241d"/><path d="m269.821 151.934c-.809-4.652-4.635-8.456-9.286-9.271-4.213-.738-8.043.849-10.569 3.642h-17.25l6.971-6.971c2.434-2.434 2.434-6.38 0-8.813-2.434-2.434-6.38-2.434-8.813 0l-15.784 15.784h-29.167c-2.863-11.794-12.126-21.058-23.921-23.921v-29.167l15.784-15.784c2.434-2.434 2.434-6.38 0-8.813s-6.38-2.434-8.813 0l-6.971 6.971v-17.251c2.792-2.525 4.38-6.355 3.642-10.567-.814-4.651-4.618-8.479-9.27-9.288-7.274-1.265-13.589 4.3-13.589 11.339 0 3.092 1.234 5.885 3.216 7.954v17.205l-6.364-6.364c-2.434-2.434-6.38-2.434-8.813 0s-2.434 6.38 0 8.813l15.178 15.178v29.929c-11.505 3.03-20.5 12.173-23.314 23.765h-29.168l-15.784-15.784c-2.434-2.434-6.38-2.434-8.813 0-2.434 2.434-2.434 6.38 0 8.813l6.971 6.971h-17.25c-2.525-2.792-6.354-4.38-10.567-3.643-4.652.814-8.479 4.618-9.288 9.27-1.266 7.274 4.299 13.589 11.339 13.589 3.371 0 6.374-1.473 8.481-3.78v.564h16.679l-6.364 6.364c-2.434 2.434-2.434 6.38 0 8.813 2.434 2.434 6.38 2.434 8.813 0l15.178-15.178h29.929c2.977 11.303 11.855 20.181 23.158 23.158v29.929l-15.178 15.178c-2.434 2.434-2.434 6.38 0 8.813s6.38 2.434 8.813 0l6.364-6.364v17.205c-2.472 2.58-3.78 6.286-2.983 10.293.901 4.53 4.658 8.204 9.208 8.999 7.278 1.271 13.597-4.295 13.597-11.338 0-3.39-1.491-6.408-3.823-8.516v-17.25l6.971 6.971c2.434 2.434 6.38 2.434 8.813 0s2.434-6.38 0-8.813l-15.784-15.784v-29.167c11.591-2.814 20.735-11.809 23.765-23.314h29.929l15.178 15.178c2.434 2.434 6.38 2.434 8.813 0 2.434-2.434 2.434-6.38 0-8.813l-6.364-6.364h17.206c2.069 1.982 4.862 3.216 7.954 3.216 7.04.001 12.605-6.313 11.34-13.586zm-115.516 20.895c-10.398 0-18.828-8.429-18.828-18.828s8.429-18.828 18.828-18.828 18.828 8.43 18.828 18.828-8.43 18.828-18.828 18.828z" fill="#c1dbdc"/><g fill="#4c241d"><path d="m154.281 273.695c-.912 0-1.828-.08-2.742-.24-6.213-1.084-11.213-5.971-12.443-12.158-.898-4.51.158-8.996 2.906-12.551v-6.098c-4.016 3.549-10.172 3.396-14.006-.438-1.934-1.932-2.998-4.502-2.998-7.234s1.064-5.303 2.998-7.234l14.006-14.006v-25.328c-10.289-3.678-18.426-11.814-22.104-22.104h-25.328l-14.006 14.006c-3.988 3.988-10.48 3.988-14.469 0-3.838-3.838-3.984-9.992-.438-14.006h-6.129c-2.693 2.066-6 3.217-9.402 3.217-4.592 0-8.922-2.018-11.879-5.533s-4.197-8.16-3.4-12.742c1.09-6.271 6.246-11.422 12.539-12.523 4.674-.814 9.367.514 12.883 3.582h5.969l-.143-.143c-3.99-3.99-3.99-10.48 0-14.471 3.988-3.988 10.48-3.988 14.469 0l14.613 14.613h24.506c3.568-10.59 11.787-18.957 22.318-22.711v-25.325l-14.006-14.006c-3.99-3.99-3.99-10.48 0-14.471 3.838-3.838 9.994-3.982 14.006-.438v-6.102c-2.084-2.705-3.217-5.994-3.217-9.428 0-4.592 2.018-8.924 5.535-11.881 3.516-2.955 8.168-4.188 12.74-3.4 6.273 1.094 11.422 6.25 12.523 12.541.818 4.672-.514 9.363-3.582 12.883v5.967l.143-.143c3.988-3.99 10.479-3.992 14.471-.002 3.99 3.992 3.99 10.482 0 14.473l-14.613 14.611v24.506c10.84 3.639 19.287 12.086 22.926 22.926h24.506l14.611-14.613c3.988-3.986 10.482-3.992 14.471 0 3.99 3.99 3.99 10.48 0 14.471l-.143.143h5.967c3.523-3.07 8.217-4.406 12.887-3.582 6.291 1.102 11.445 6.252 12.537 12.525.795 4.582-.443 9.225-3.402 12.74-2.957 3.516-7.287 5.533-11.879 5.533-3.434 0-6.723-1.133-9.428-3.217h-6.102c3.547 4.014 3.4 10.168-.438 14.006-3.984 3.992-10.479 3.996-14.471 0l-14.006-14.006h-25.326c-3.756 10.531-12.121 18.75-22.711 22.318v24.506l14.613 14.613c1.934 1.932 2.996 4.502 2.996 7.234s-1.062 5.303-2.996 7.234c-3.996 3.988-10.486 3.984-14.471 0l-.143-.143v5.971c2.447 2.812 3.822 6.418 3.822 10.141 0 4.594-2.018 8.926-5.537 11.883-2.814 2.369-6.353 3.632-10.003 3.634zm-8.28-44.675c.516 0 1.035.1 1.531.305 1.494.619 2.469 2.078 2.469 3.695v17.205c0 1.031-.398 2.023-1.111 2.768-1.732 1.807-2.443 4.266-1.949 6.742.582 2.928 3.039 5.328 5.975 5.842 2.275.395 4.494-.182 6.223-1.637 1.707-1.436 2.686-3.533 2.686-5.76 0-2.119-.889-4.088-2.504-5.549-.84-.758-1.318-1.836-1.318-2.967v-17.252c0-1.617.975-3.076 2.469-3.695 1.494-.621 3.213-.277 4.359.867l6.971 6.971c.871.871 2.287.869 3.158-.002.869-.869.869-2.283 0-3.154l-15.785-15.785c-.75-.75-1.172-1.768-1.172-2.828v-29.166c0-1.846 1.264-3.451 3.057-3.887 10.184-2.473 18.17-10.309 20.842-20.447.463-1.756 2.051-2.98 3.867-2.98h29.928c1.061 0 2.078.422 2.828 1.172l15.178 15.178c.871.871 2.287.869 3.158 0 .871-.871.871-2.287 0-3.158l-6.365-6.363c-1.145-1.143-1.486-2.863-.867-4.359.619-1.494 2.078-2.469 3.695-2.469h17.207c1.031 0 2.023.398 2.768 1.111 3.053 2.922 8.266 2.605 10.943-.578 1.455-1.729 2.037-3.938 1.641-6.219-.516-2.965-3.053-5.494-6.035-6.018-2.607-.447-5.125.414-6.912 2.387-.758.838-1.836 1.316-2.967 1.316h-17.25c-1.617 0-3.076-.975-3.695-2.469-.619-1.496-.277-3.215.867-4.359l6.971-6.971c.871-.871.871-2.287 0-3.158-.871-.873-2.287-.873-3.158 0l-15.783 15.785c-.75.75-1.768 1.172-2.828 1.172h-29.168c-1.846 0-3.451-1.264-3.887-3.057-2.527-10.412-10.564-18.449-20.977-20.977-1.793-.436-3.057-2.041-3.057-3.887v-29.168c0-1.061.422-2.078 1.172-2.828l15.785-15.783c.871-.871.871-2.287 0-3.158s-2.287-.875-3.158 0l-6.971 6.971c-1.146 1.145-2.865 1.484-4.359.867-1.494-.619-2.469-2.078-2.469-3.695v-17.251c0-1.131.479-2.209 1.316-2.967 1.973-1.783 2.842-4.303 2.387-6.91-.523-2.982-3.053-5.521-6.018-6.037-2.285-.406-4.49.186-6.219 1.639-1.705 1.436-2.684 3.535-2.684 5.76 0 1.928.748 3.77 2.105 5.186.713.744 1.111 1.736 1.111 2.768v17.207c0 1.617-.975 3.076-2.469 3.695-1.5.615-3.219.275-4.359-.867l-6.363-6.365c-.871-.871-2.287-.875-3.158 0-.871.871-.871 2.287 0 3.158l15.178 15.178c.75.75 1.172 1.768 1.172 2.828v29.928c0 1.816-1.225 3.404-2.98 3.867-10.139 2.672-17.975 10.658-20.447 20.842-.436 1.793-2.041 3.057-3.887 3.057h-29.168c-1.061 0-2.078-.422-2.828-1.172l-15.785-15.785c-.871-.871-2.285-.871-3.156 0s-.871 2.287 0 3.158l6.971 6.971c1.145 1.145 1.486 2.863.867 4.359-.619 1.494-2.078 2.469-3.695 2.469h-17.253c-1.131 0-2.209-.479-2.969-1.318-1.779-1.973-4.303-2.838-6.908-2.385-2.982.523-5.521 3.053-6.035 6.016-.398 2.283.186 4.492 1.639 6.221 2.793 3.318 8.285 3.49 11.283.207 1.115-1.219 2.867-1.629 4.4-1.035.211.082.414.182.604.295h14.631c1.617 0 3.076.975 3.695 2.469.619 1.496.277 3.215-.867 4.359l-6.363 6.363c-.871.871-.871 2.287 0 3.158s2.285.871 3.156 0l15.178-15.178c.75-.75 1.768-1.172 2.828-1.172h29.93c1.816 0 3.406 1.225 3.867 2.98 2.611 9.916 10.395 17.699 20.311 20.311 1.756.461 2.98 2.051 2.98 3.867v29.93c0 1.061-.422 2.078-1.172 2.828l-15.178 15.178c-.869.871-.869 2.285 0 3.156.871.871 2.287.869 3.158-.002l6.363-6.361c.766-.768 1.787-1.174 2.828-1.174zm8.303-52.19c-12.588 0-22.828-10.24-22.828-22.828s10.24-22.828 22.828-22.828 22.828 10.24 22.828 22.828-10.24 22.828-22.828 22.828zm0-37.656c-8.176 0-14.828 6.652-14.828 14.828s6.652 14.828 14.828 14.828 14.828-6.652 14.828-14.828-6.652-14.828-14.828-14.828z"/><path d="m211.658 51.961c-1.023 0-2.047-.391-2.828-1.172l-11.312-11.312c-1.562-1.562-1.562-4.094 0-5.656s4.094-1.562 5.656 0l11.312 11.312c1.562 1.562 1.562 4.094 0 5.656-.781.781-1.805 1.172-2.828 1.172z"/><path d="m200.345 51.961c-1.023 0-2.047-.391-2.828-1.172-1.562-1.562-1.562-4.094 0-5.656l11.313-11.313c1.562-1.562 4.094-1.562 5.656 0s1.562 4.094 0 5.656l-11.312 11.312c-.782.782-1.805 1.173-2.829 1.173z"/><path d="m47.658 55.961c-1.023 0-2.047-.391-2.828-1.172l-11.313-11.312c-1.562-1.562-1.562-4.094 0-5.656s4.094-1.562 5.656 0l11.312 11.312c1.562 1.562 1.562 4.094 0 5.656-.78.781-1.804 1.172-2.827 1.172z"/><path d="m36.345 55.961c-1.023 0-2.047-.391-2.828-1.172-1.562-1.562-1.562-4.094 0-5.656l11.313-11.313c1.562-1.562 4.094-1.562 5.656 0s1.562 4.094 0 5.656l-11.313 11.313c-.781.781-1.804 1.172-2.828 1.172z"/><path d="m207.658 267.961c-1.023 0-2.047-.391-2.828-1.172l-11.312-11.312c-1.562-1.562-1.562-4.094 0-5.656s4.094-1.562 5.656 0l11.312 11.312c1.562 1.562 1.562 4.094 0 5.656-.781.781-1.805 1.172-2.828 1.172z"/><path d="m196.345 267.961c-1.023 0-2.047-.391-2.828-1.172-1.562-1.562-1.562-4.094 0-5.656l11.312-11.312c1.562-1.562 4.094-1.562 5.656 0s1.562 4.094 0 5.656l-11.312 11.312c-.781.781-1.804 1.172-2.828 1.172z"/><path d="m258.001 122.305c-6.617 0-12-5.383-12-12s5.383-12 12-12 12 5.383 12 12-5.382 12-12 12zm0-16c-2.205 0-4 1.795-4 4s1.795 4 4 4 4-1.795 4-4-1.795-4-4-4z"/><path d="m98.001 50.305c-6.617 0-12-5.383-12-12s5.383-12 12-12 12 5.383 12 12-5.382 12-12 12zm0-16c-2.205 0-4 1.795-4 4s1.795 4 4 4 4-1.795 4-4-1.795-4-4-4z"/><path d="m42.001 214.305c-6.617 0-12-5.383-12-12s5.383-12 12-12 12 5.383 12 12-5.382 12-12 12zm0-16c-2.205 0-4 1.795-4 4s1.795 4 4 4 4-1.795 4-4-1.795-4-4-4z"/><circle cx="258.001" cy="42.305" r="4.292"/><circle cx="42.001" cy="98.305" r="4.292"/><circle cx="110.001" cy="254.305" r="4.292"/><circle cx="258.001" cy="202.305" r="4.292"/></g></svg>