<svg id="snowmobile" enable-background="new 0 0 300 300" height="512" viewBox="0 0 300 300" width="512" xmlns="http://www.w3.org/2000/svg"><circle cx="136" cy="142.557" fill="#edebdc" r="92"/><g fill="#4c241d"><path d="m257.168 48.755c-1.016 0-2.029-.383-2.809-1.152l-11.389-11.238c-1.574-1.553-1.59-4.084-.039-5.658 1.555-1.572 4.084-1.59 5.656-.037l11.389 11.238c1.574 1.553 1.59 4.084.039 5.658-.783.792-1.814 1.189-2.847 1.189z"/><path d="m245.854 48.829c-1.016 0-2.031-.385-2.811-1.152-1.572-1.553-1.588-4.086-.037-5.658l11.238-11.387c1.553-1.572 4.086-1.586 5.658-.037 1.572 1.553 1.588 4.086.037 5.658l-11.238 11.387c-.783.792-1.814 1.189-2.847 1.189z"/><path d="m77.168 128.755c-1.016 0-2.029-.383-2.809-1.152l-11.389-11.238c-1.574-1.553-1.59-4.084-.039-5.658 1.553-1.574 4.084-1.59 5.656-.037l11.389 11.238c1.574 1.553 1.59 4.084.039 5.658-.783.792-1.814 1.189-2.847 1.189z"/><path d="m65.854 128.829c-1.016 0-2.031-.385-2.811-1.152-1.572-1.553-1.588-4.086-.037-5.658l11.238-11.387c1.555-1.572 4.086-1.586 5.658-.037 1.572 1.553 1.588 4.086.037 5.658l-11.238 11.387c-.783.792-1.814 1.189-2.847 1.189z"/><path d="m193.168 116.755c-1.016 0-2.029-.383-2.809-1.152l-11.389-11.238c-1.574-1.553-1.59-4.084-.039-5.658 1.553-1.572 4.084-1.59 5.656-.037l11.389 11.238c1.574 1.553 1.59 4.084.039 5.658-.783.792-1.814 1.189-2.847 1.189z"/><path d="m181.854 116.829c-1.016 0-2.031-.385-2.811-1.152-1.572-1.553-1.588-4.086-.037-5.658l11.238-11.387c1.553-1.574 4.086-1.586 5.658-.037 1.572 1.553 1.588 4.086.037 5.658l-11.238 11.387c-.783.792-1.814 1.189-2.847 1.189z"/><path d="m247.998 122.557c-6.58 0-11.955-5.33-11.998-11.92-.043-6.617 5.305-12.035 11.92-12.08h.082c6.58 0 11.955 5.33 11.998 11.92.043 6.617-5.305 12.035-11.92 12.08-.027 0-.055 0-.082 0zm.002-16c-.008 0-.018 0-.025 0-2.207.014-3.99 1.82-3.975 4.025.014 2.197 1.807 3.975 4 3.975h.025c2.207-.014 3.99-1.82 3.975-4.025-.014-2.197-1.807-3.975-4-3.975z"/><path d="m103.998 54.557c-6.58 0-11.955-5.33-11.998-11.92-.043-6.617 5.305-12.035 11.92-12.08h.082c6.58 0 11.955 5.33 11.998 11.92.043 6.617-5.305 12.035-11.92 12.08-.027 0-.055 0-.082 0zm.002-16c-.008 0-.018 0-.025 0-2.207.014-3.99 1.82-3.975 4.025.014 2.197 1.807 3.975 4 3.975h.025c2.207-.014 3.99-1.82 3.975-4.025-.014-2.197-1.807-3.975-4-3.975z"/><circle cx="195.549" cy="58.157" r="4.292"/><circle cx="123.549" cy="94.157" r="4.292"/><circle cx="47.549" cy="58.157" r="4.292"/><circle cx="231.549" cy="154.157" r="4.292"/></g><path d="m152 242.557h85.959c3.291 0 5.959-2.668 5.959-5.959 0-5.545 4.495-10.041 10.041-10.041 5.545 0 10.041 4.495 10.041 10.041v3.631c0 14.541-11.788 26.328-26.328 26.328h-61.672c-13.255 0-24-10.745-24-24z" fill="#bd53b5"/><path d="m237.672 270.557h-61.672c-15.439 0-28-12.561-28-28 0-2.209 1.791-4 4-4h85.959c1.08 0 1.959-.879 1.959-1.959 0-7.742 6.299-14.041 14.041-14.041s14.041 6.299 14.041 14.041v3.631c0 16.723-13.605 30.328-30.328 30.328zm-81.27-24c1.857 9.117 9.939 16 19.598 16h61.672c12.312 0 22.328-10.016 22.328-22.328v-3.631c0-3.33-2.711-6.041-6.041-6.041s-6.041 2.711-6.041 6.041c0 5.492-4.467 9.959-9.959 9.959z" fill="#4c241d"/><path d="m108.982 270.557h-63.921c-7.201 0-13.061-5.859-13.061-13.061 0-5.141 1.557-10.086 4.5-14.303l21.75-31.131c.748-1.07 1.973-1.709 3.279-1.709h17.295c.973 0 1.91.354 2.641.996l37.434 32.912c3.242 2.85 5.102 6.961 5.102 11.277-.001 8.283-6.737 15.019-15.019 15.019zm-45.369-52.203-20.555 29.422c-2 2.865-3.059 6.227-3.059 9.721 0 2.791 2.27 5.061 5.061 5.061h63.922c3.869 0 7.018-3.148 7.018-7.018 0-2.018-.869-3.938-2.383-5.27l-36.301-31.916z" fill="#4c241d"/><path d="m112 266.557c-4.418 0-8-3.582-8-8 0-4.418 3.582-8 8-8 4.418 0 8 3.582 8 8 0 4.419-3.582 8-8 8z" fill="#9dc1e4"/><path d="m112 270.557c-6.617 0-12-5.383-12-12s5.383-12 12-12 12 5.383 12 12c0 6.618-5.383 12-12 12zm0-16c-2.205 0-4 1.795-4 4s1.795 4 4 4 4-1.795 4-4-1.795-4-4-4z" fill="#4c241d"/><path d="m76 266.557c-4.418 0-8-3.582-8-8 0-4.418 3.582-8 8-8 4.418 0 8 3.582 8 8 0 4.419-3.582 8-8 8z" fill="#9dc1e4"/><path d="m76 270.557c-6.617 0-12-5.383-12-12s5.383-12 12-12 12 5.383 12 12c0 6.618-5.383 12-12 12zm0-16c-2.205 0-4 1.795-4 4s1.795 4 4 4 4-1.795 4-4-1.795-4-4-4z" fill="#4c241d"/><path d="m44 266.557c-4.418 0-8-3.582-8-8 0-4.418 3.582-8 8-8 4.418 0 8 3.582 8 8 0 4.419-3.582 8-8 8z" fill="#9dc1e4"/><path d="m44 270.557c-6.617 0-12-5.383-12-12s5.383-12 12-12 12 5.383 12 12c0 6.618-5.383 12-12 12zm0-16c-2.205 0-4 1.795-4 4s1.795 4 4 4 4-1.795 4-4-1.795-4-4-4z" fill="#4c241d"/><path d="m171.955 243.456c-.633 0-1.275-.15-1.873-.467-1.951-1.037-2.691-3.459-1.656-5.41l14.225-26.775c1.037-1.951 3.463-2.689 5.41-1.656 1.951 1.037 2.691 3.459 1.656 5.41l-14.225 26.775c-.719 1.353-2.103 2.123-3.537 2.123z" fill="#4c241d"/><path d="m222.166 242.618c-1.506 0-2.947-.854-3.627-2.309l-11.715-25.102c-.934-2.002-.068-4.381 1.934-5.316 2.002-.938 4.381-.068 5.316 1.934l11.715 25.102c.934 2.002.068 4.381-1.934 5.316-.546.256-1.123.375-1.689.375z" fill="#4c241d"/><path d="m132 133.006v30.123h58.976z" fill="#fff"/><path d="m190.977 167.13h-58.977c-2.209 0-4-1.791-4-4v-30.123c0-1.393.725-2.686 1.912-3.412 1.188-.729 2.666-.783 3.908-.15l58.977 30.123c1.646.842 2.502 2.701 2.068 4.498-.431 1.796-2.039 3.064-3.888 3.064zm-54.977-8h38.352l-38.352-19.588z" fill="#4c241d"/><path d="m132 166.557c-.992 0-1.986-.367-2.762-1.107l-11.414-10.893h-13.457c-2.209 0-4-1.791-4-4s1.791-4 4-4h15.061c1.029 0 2.018.396 2.762 1.107l12.572 12c1.598 1.523 1.656 4.057.131 5.654-.786.825-1.838 1.239-2.893 1.239z" fill="#4c241d"/><path d="m132 174.557h-60c0-6.627-5.373-12-12-12h-12c-6.627 0-12 5.373-12 12v16h96z" fill="#9dc1e4"/><path d="m132 194.557h-96c-2.209 0-4-1.791-4-4v-16c0-8.822 7.178-16 16-16h12c7.441 0 13.713 5.107 15.494 12h56.506c2.209 0 4 1.791 4 4v16c0 2.209-1.791 4-4 4zm-92-8h88v-8h-56c-2.209 0-4-1.791-4-4 0-4.412-3.588-8-8-8h-12c-4.412 0-8 3.588-8 8z" fill="#4c241d"/><path d="m190.976 162.557h-58.976v12 16h-96v28h204v-13.069c0-11.586-6.597-22.161-17.003-27.255z" fill="#c1dbdc"/><path d="m240 222.557h-204c-2.209 0-4-1.791-4-4v-28c0-2.209 1.791-4 4-4h92v-24c0-2.209 1.791-4 4-4h58.977c.609 0 1.211.139 1.76.408l32.02 15.676c11.689 5.723 19.244 17.83 19.244 30.848v13.068c-.001 2.209-1.792 4-4.001 4zm-200-8h196v-9.068c0-9.984-5.795-19.273-14.762-23.664l-31.188-15.268h-54.05v24c0 2.209-1.791 4-4 4h-92z" fill="#4c241d"/><path d="m236 194.557h-64c-2.209 0-4-1.791-4-4s1.791-4 4-4h64c2.209 0 4 1.791 4 4s-1.791 4-4 4z" fill="#4c241d"/></svg>