<svg id="Capa_1" enable-background="new 0 0 512 512" height="512" viewBox="0 0 512 512" width="512" xmlns="http://www.w3.org/2000/svg"><path id="XMLID_207_" d="m15.75 258.524h34.315c5.523 0 10-4.477 10-10s-4.477-10-10-10h-34.315c-5.523 0-10 4.477-10 10s4.477 10 10 10z"/><path id="XMLID_208_" d="m84.971 154.255c1.953 1.953 4.512 2.929 7.071 2.929s5.119-.977 7.071-2.929c3.905-3.905 3.906-10.237 0-14.142l-29.138-29.138c-3.905-3.906-10.237-3.905-14.142 0s-3.906 10.237 0 14.142z"/><path id="XMLID_209_" d="m193.383 115.207c5.523 0 10-4.477 10-10v-41.207c0-5.523-4.477-10-10-10s-10 4.477-10 10v41.207c0 5.523 4.477 10 10 10z"/><path id="XMLID_210_" d="m294.724 157.184c2.559 0 5.119-.977 7.071-2.929l29.138-29.138c3.905-3.905 3.905-10.237 0-14.142s-10.237-3.905-14.142 0l-29.138 29.138c-3.905 3.905-3.905 10.237 0 14.142 1.952 1.953 4.512 2.929 7.071 2.929z"/><path id="XMLID_213_" d="m427.075 349.199c-1.851 0-3.715.063-5.587.189-7.353-26.029-22.649-49.505-43.713-66.837-21.017-17.293-46.958-27.713-73.998-29.904.051-1.375.082-2.75.082-4.123 0-60.916-49.559-110.475-110.476-110.475-60.916 0-110.475 49.559-110.475 110.475 0 30.686 12.427 59.206 34.047 79.812-19.707 6.547-36.677 19.88-47.776 38.083-.489-.011-.975-.017-1.457-.017-37.342.001-67.722 30.381-67.722 67.723 0 5.471.667 10.946 1.982 16.272 1.102 4.465 5.109 7.603 9.708 7.603h199.437c5.523 0 10-4.477 10-10s-4.477-10-10-10h-190.969c-.105-1.29-.158-2.583-.158-3.875 0-26.314 21.408-47.722 47.722-47.722 1.889 0 3.805.122 5.857.373 4.163.512 8.2-1.635 10.112-5.367 11.117-21.7 32.437-35.709 56.439-37.432.136.006.272.028.408.028.522 0 1.039-.055 1.552-.135 1.016-.044 2.034-.075 3.058-.075 9.976 0 19.623 2.1 28.674 6.241 2.504 1.146 5.37 1.209 7.921.173 2.552-1.036 4.563-3.077 5.561-5.644 17.081-43.956 58.592-72.357 105.756-72.357 53.475 0 100.174 37.938 111.041 90.207 1.101 5.296 6.211 8.758 11.54 7.81 3.833-.681 7.68-1.026 11.435-1.026 35.8 0 64.925 29.125 64.925 64.926 0 1.285-.04 2.579-.119 3.875h-190.755c-5.523 0-10 4.477-10 10s4.477 10 10 10h199.569c4.813 0 8.943-3.428 9.829-8.159.979-5.223 1.475-10.511 1.475-15.717 0-46.828-38.097-84.925-84.925-84.925zm-254.444-21.065c-8.844-2.883-18.05-4.339-27.483-4.339-.648 0-1.293.017-1.938.031-25.295-16.856-40.302-44.777-40.302-75.302 0-49.888 40.587-90.475 90.475-90.475s90.476 40.587 90.476 90.475c0 1.338-.04 2.677-.099 4.016-24.058 1.654-47.019 9.702-66.893 23.553-19.145 13.342-34.291 31.199-44.236 52.041z"/><path id="XMLID_214_" d="m256.13 438c-2.64 0-5.21 1.07-7.07 2.93-1.87 1.86-2.93 4.44-2.93 7.07s1.06 5.21 2.93 7.07c1.86 1.86 4.43 2.93 7.07 2.93 2.63 0 5.21-1.07 7.07-2.93s2.93-4.44 2.93-7.07-1.07-5.21-2.93-7.07-4.44-2.93-7.07-2.93z"/></svg>